<svg xmlns="http://www.w3.org/2000/svg" width="120.004" height="81.92" viewBox="0 0 120.004 81.92">
  <path id="icone" d="M119.2,25.994a152.885,152.885,0,0,0-42.149-5.8A148.521,148.521,0,0,1,107.6,7.871a1.029,1.029,0,0,0,.725-1.036A1.126,1.126,0,0,0,107.6,5.8,158.248,158.248,0,0,0,65.345,0,155.212,155.212,0,0,0,.62,14.084.656.656,0,0,0,.1,14.7a1.134,1.134,0,0,0,0,.828L11.7,35.625v.1L38.109,81.4a1.056,1.056,0,0,0,.828.518,1.124,1.124,0,0,0,.932-.414c1.243-1.553,2.485-3.107,3.728-4.557A1.028,1.028,0,1,0,42.044,75.6c-.932,1.139-1.864,2.278-2.8,3.521L28.685,60.79a159.187,159.187,0,0,1,13.67-15.223,1.025,1.025,0,0,0-1.45-1.45A147.778,147.778,0,0,0,27.65,58.822l-13.463-23.3A153.644,153.644,0,0,1,68.97,22.265c-2.278,1.346-4.453,2.8-6.628,4.246a1.049,1.049,0,1,0,1.139,1.761c3.21-2.175,6.524-4.246,9.838-6.11h3.625a150.392,150.392,0,0,1,38.214,4.867c-2.589.828-5.178,1.657-7.663,2.589a1.049,1.049,0,1,0,.725,1.968c3.625-1.346,7.353-2.485,11.081-3.625a1.029,1.029,0,0,0,.725-1.036.982.982,0,0,0-.826-.931ZM13.048,33.864,2.485,15.534A153.065,153.065,0,0,1,65.345,2.071a150.392,150.392,0,0,1,38.214,4.867A153.2,153.2,0,0,0,72.8,20.194a153.491,153.491,0,0,0-59.752,13.67Z" transform="translate(-0.023)" fill="#fabe2c"/>
</svg>
