<svg xmlns="http://www.w3.org/2000/svg" width="21.249" height="28.143" viewBox="0 0 21.249 28.143"><g transform="translate(1 1)"><g transform="translate(11737 -327)" fill="#13be94"><path d="M -11727.3759765625 353.642333984375 C -11727.6728515625 353.642333984375 -11727.9580078125 353.5129089355469 -11728.1572265625 353.2872009277344 L -11728.1591796875 353.2846069335938 L -11728.1611328125 353.2819519042969 C -11729.529296875 351.6889953613281 -11734.1826171875 346.0782775878906 -11736.6123046875 340.7612609863281 C -11737.201171875 339.47314453125 -11737.5 338.0811767578125 -11737.5 336.6241455078125 C -11737.5 331.0415344238281 -11732.9580078125 326.499755859375 -11727.3759765625 326.499755859375 C -11721.7939453125 326.499755859375 -11717.251953125 331.04150390625 -11717.2509765625 336.6240539550781 C -11717.2509765625 338.0791625976563 -11717.548828125 339.470947265625 -11718.13671875 340.7608032226563 C -11720.57421875 346.0903625488281 -11725.2236328125 351.6921691894531 -11726.5908203125 353.2821350097656 C -11726.787109375 353.5109558105469 -11727.0732421875 353.642333984375 -11727.3759765625 353.642333984375 Z" stroke="none"/><path d="M -11727.3759765625 353.142333984375 C -11727.2197265625 353.142333984375 -11727.0712890625 353.074462890625 -11726.9697265625 352.9561767578125 C -11725.61328125 351.3783569335938 -11721.0009765625 345.82080078125 -11718.591796875 340.553466796875 C -11718.0341796875 339.329833984375 -11717.7509765625 338.0078735351563 -11717.7509765625 336.6241455078125 C -11717.751953125 331.3172607421875 -11722.0703125 326.999755859375 -11727.3759765625 326.999755859375 C -11732.681640625 326.999755859375 -11737 331.3172607421875 -11737 336.6241455078125 C -11737 338.0082397460938 -11736.716796875 339.3301391601563 -11736.1572265625 340.553466796875 C -11733.7509765625 345.8192138671875 -11729.1376953125 351.3779296875 -11727.7822265625 352.9561767578125 C -11727.677734375 353.074462890625 -11727.5302734375 353.142333984375 -11727.3759765625 353.142333984375 M -11727.3759765625 354.142333984375 C -11727.81640625 354.142333984375 -11728.2373046875 353.9513244628906 -11728.53125 353.6182556152344 L -11728.5361328125 353.6130065917969 L -11728.541015625 353.6077270507813 C -11729.919921875 352.0021667480469 -11734.609375 346.3457641601563 -11737.06640625 340.9690856933594 C -11737.685546875 339.6154174804688 -11738 338.1534423828125 -11738 336.6241455078125 C -11738 330.7658386230469 -11733.234375 325.999755859375 -11727.3759765625 325.999755859375 C -11721.5185546875 325.999755859375 -11716.751953125 330.7657470703125 -11716.7509765625 336.6239624023438 C -11716.7509765625 338.1512145996094 -11717.064453125 339.6127319335938 -11717.681640625 340.9681396484375 C -11720.1474609375 346.3580322265625 -11724.833984375 352.0055541992188 -11726.2119140625 353.6080932617188 C -11726.5029296875 353.9474182128906 -11726.927734375 354.142333984375 -11727.3759765625 354.142333984375 Z" stroke="none" fill="#fff"/></g><path d="M-11720.395,339.011a18.062,18.062,0,0,0-5.414,4.59l1.363,2.343a18.45,18.45,0,0,1,4.129-3.858,17.665,17.665,0,0,1,5.178-2.41,17.892,17.892,0,0,0-4.908-.664h-.348Zm-1.141-2.217a17.821,17.821,0,0,0-7.281,1.551l2.912,5.034a17.662,17.662,0,0,1,3.922-3.688,18,18,0,0,1,4.85-2.359A18.551,18.551,0,0,0-11721.535,336.794Z" transform="translate(11731.483 -331.096)" fill="#f9faff"/></g></svg>