<svg xmlns="http://www.w3.org/2000/svg" xmlns:xlink="http://www.w3.org/1999/xlink" width="118" height="118" viewBox="0 0 118 118"><defs><linearGradient id="a" x1="0.5" x2="0.5" y2="1" gradientUnits="objectBoundingBox"><stop offset="0" stop-color="#5fb0eb"/><stop offset="1" stop-color="#1b547e"/></linearGradient><filter id="b" x="0" y="0" width="118" height="118" filterUnits="userSpaceOnUse"><feOffset dy="3" input="SourceAlpha"/><feGaussianBlur stdDeviation="3" result="c"/><feFlood flood-opacity="0.161"/><feComposite operator="in" in2="c"/><feComposite in="SourceGraphic"/></filter></defs><g transform="translate(-401 -424)"><g transform="matrix(1, 0, 0, 1, 401, 424)" filter="url(#b)"><path d="M50,0a50,50,0,1,0,50,50A50,50,0,0,0,50,0Z" transform="translate(9 6)" fill="url(#a)"/></g><path d="M223.765,182.82,197.1,199.486a3.334,3.334,0,0,1-5.1-2.827V163.327a3.334,3.334,0,0,1,5.1-2.827l26.666,16.666a3.334,3.334,0,0,1,0,5.654Z" transform="translate(254.844 302.007)" fill="#fff"/></g></svg>