<svg xmlns="http://www.w3.org/2000/svg" width="93.645" height="60" viewBox="0 0 93.645 60"><path d="M99.015-69.208Q89.482-93.04,89.482-107.9a100.941,100.941,0,0,1,1.4-15.981l-37.009-3.925q0,1.122,0,4.346a55.552,55.552,0,0,0,1.682,10.654A90.051,90.051,0,0,0,61.3-96.264a52.433,52.433,0,0,0,12.757,17.1A50.286,50.286,0,0,0,94.248-67.806Zm-48.785,0Q40.7-93.04,40.7-107.9a100.942,100.942,0,0,1,1.4-15.981L5.37-127.806v4.346a60.255,60.255,0,0,0,1.542,10.654A77.941,77.941,0,0,0,12.66-96.264a55.23,55.23,0,0,0,12.757,17.1A49.148,49.148,0,0,0,45.463-67.806Z" transform="translate(-5.37 127.806)" fill="#c8e3ff"/></svg>