<svg xmlns="http://www.w3.org/2000/svg" width="93.645" height="60" viewBox="0 0 93.645 60"><path d="M5.37-69.208Q14.9-93.04,14.9-107.9a100.941,100.941,0,0,0-1.4-15.981l37.009-3.925q0,1.121,0,4.346a55.552,55.552,0,0,1-1.682,10.654A90.05,90.05,0,0,1,43.08-96.264a52.433,52.433,0,0,1-12.757,17.1A50.285,50.285,0,0,1,10.136-67.806Zm48.785,0Q63.688-93.04,63.688-107.9a100.942,100.942,0,0,0-1.4-15.981l36.729-3.925v4.346a60.255,60.255,0,0,1-1.542,10.654,77.94,77.94,0,0,1-5.748,16.542,55.229,55.229,0,0,1-12.757,17.1A49.147,49.147,0,0,1,58.921-67.806Z" transform="translate(-5.37 127.806)" fill="#c8e3ff"/></svg>