<svg xmlns="http://www.w3.org/2000/svg" xmlns:xlink="http://www.w3.org/1999/xlink" width="33.5" height="33.5" viewBox="0 0 33.5 33.5"><defs><filter id="a" x="0" y="0" width="33.5" height="33.5" filterUnits="userSpaceOnUse"><feOffset dx="2" dy="2" input="SourceAlpha"/><feGaussianBlur stdDeviation="0.5" result="b"/><feFlood flood-color="#5c9fe4" flood-opacity="0.561"/><feComposite operator="in" in2="b"/><feComposite in="SourceGraphic"/></filter></defs><g transform="translate(-790 -950)"><g transform="matrix(1, 0, 0, 1, 790, 950)" filter="url(#a)"><circle cx="15" cy="15" r="15" fill="#c8e3ff"/></g><path d="M98.465,57.389l-2-2a1.447,1.447,0,0,0-2.07,0L82.651,67.138l-4.775-4.775a1.447,1.447,0,0,0-2.07,0l-2,2a1.447,1.447,0,0,0,0,2.07l7.807,7.807a1.447,1.447,0,0,0,2.07,0L98.465,59.459a1.447,1.447,0,0,0,0-2.07Z" transform="translate(721.1 898.327)" fill="#348be5"/></g></svg>