<svg xmlns="http://www.w3.org/2000/svg" width="50" height="49.991" viewBox="0 0 50 49.991"><g transform="translate(-200 -1500)"><path d="M13761.875,5625.769c-.207.156-11.035,14.663-11.035,14.663l4.766,8.031,18.395-3.212-3.914-6.9s1.686-3.081.857-4.568-4.17-1.38-4.17-1.38Z" transform="translate(-13530.955 -4113.79)" fill="#13be94"/><path d="M-13519.168-4049.01a3.836,3.836,0,0,1-3.832-3.833v-42.323a3.838,3.838,0,0,1,3.832-3.835h23.969a3.839,3.839,0,0,1,3.834,3.835v4.662a.977.977,0,0,1-.977.974.976.976,0,0,1-.977-.974v-.293h-27.729v32.6h20.912l-1.949-3.377-.559.323a5.57,5.57,0,0,1-2.795.754,5.594,5.594,0,0,1-1.461-.194,5.57,5.57,0,0,1-3.4-2.611,5.614,5.614,0,0,1,2.051-7.66l4.693-2.71,11.182-14.281a.981.981,0,0,1,.84-.371.971.971,0,0,1,.775.485l3.594,6.22a4.362,4.362,0,0,1,2.438-.046,4.373,4.373,0,0,1,2.672,2.051,4.409,4.409,0,0,1-.82,5.428l3.594,6.223a.971.971,0,0,1,.031.914.979.979,0,0,1-.742.541l-11.369,1.614v12.051a3.837,3.837,0,0,1-3.834,3.833Zm-1.879-3.833a1.882,1.882,0,0,0,1.879,1.881h23.969a1.883,1.883,0,0,0,1.881-1.881v-3.4h-27.729Zm24.342-11.292,2.559,4.434a.977.977,0,0,1-.355,1.333l-.3.172h1.482v-6.419Zm-3.687,1.585,2.309,4,1.76-1.016-2.309-4Zm-6.883-6.722a3.663,3.663,0,0,0-1.338,4.994,3.633,3.633,0,0,0,2.221,1.7,3.637,3.637,0,0,0,2.773-.364l4.012-2.317-3.654-6.33Zm5.545-3.566,3.973,6.882,11.4-1.622-8.27-14.329Zm8.4-10.727,9.059,15.692,2.572-.366-10.029-17.372Zm7.184,3.719,2.246,3.888a2.452,2.452,0,0,0,.152-2.679,2.436,2.436,0,0,0-1.488-1.142,2.456,2.456,0,0,0-.637-.083A2.538,2.538,0,0,0-13486.146-4079.846Zm-34.9-15.321v2.414h27.729v-2.414a1.883,1.883,0,0,0-1.881-1.881h-23.969A1.883,1.883,0,0,0-13521.047-4095.167Zm13.174,42.137a.985.985,0,0,1-.287-.688.982.982,0,0,1,.287-.691.983.983,0,0,1,.689-.286.985.985,0,0,1,.691.286.978.978,0,0,1,.287.691.985.985,0,0,1-.287.688.984.984,0,0,1-.691.286A.983.983,0,0,1-13507.873-4053.03Zm32.857-21.33-2.693-.722a.975.975,0,0,1-.689-1.2.974.974,0,0,1,1.2-.691l2.691.72a.975.975,0,0,1,.689,1.2.972.972,0,0,1-.941.722A1,1,0,0,1-13475.016-4074.36Zm-39.187-2.264a.977.977,0,0,1-.977-.977.975.975,0,0,1,.977-.977h7.4a.975.975,0,0,1,.977.977.977.977,0,0,1-.977.977Zm-3.76,0a.978.978,0,0,1-.977-.977.976.976,0,0,1,.977-.977h.047a.976.976,0,0,1,.975.977.977.977,0,0,1-.975.977Zm38.354-4.368a.976.976,0,0,1,.357-1.333l4.789-2.766a.975.975,0,0,1,1.332.359.975.975,0,0,1-.359,1.333l-4.787,2.764a.954.954,0,0,1-.484.131A.976.976,0,0,1-13479.609-4080.992Zm-25.561-.6a.97.97,0,0,1-.287-.691.97.97,0,0,1,.287-.691.971.971,0,0,1,.688-.286.983.983,0,0,1,.691.286.984.984,0,0,1,.285.691.984.984,0,0,1-.285.691.994.994,0,0,1-.691.286A.981.981,0,0,1-13505.17-4081.6Zm-12.783.284a.975.975,0,0,1-.977-.975.975.975,0,0,1,.977-.977h9.434a.977.977,0,0,1,.979.977.976.976,0,0,1-.979.975Zm34.781-3.217a.978.978,0,0,1-.691-1.2l.7-2.606a.976.976,0,0,1,1.2-.691.978.978,0,0,1,.691,1.2l-.7,2.6a.978.978,0,0,1-.943.725A.914.914,0,0,1-13483.172-4084.529Zm-34.781-1.469a.975.975,0,0,1-.977-.977.974.974,0,0,1,.977-.975h13.471a.974.974,0,0,1,.977.975.975.975,0,0,1-.977.977Zm7.256-7.925a.976.976,0,0,1-.977-.977.978.978,0,0,1,.977-.977h7.029a.978.978,0,0,1,.977.977.976.976,0,0,1-.977.977Z" transform="translate(13723 5599.002)" fill="#152141"/></g></svg>