<svg xmlns="http://www.w3.org/2000/svg" width="87.895" height="60" viewBox="0 0 87.895 60"><path d="M87.313,19.039a111.982,111.982,0,0,0-30.872-4.248A108.785,108.785,0,0,1,78.818,5.765a.754.754,0,0,0,.531-.759.825.825,0,0,0-.531-.759A115.91,115.91,0,0,0,47.87,0,113.686,113.686,0,0,0,.461,10.316a.481.481,0,0,0-.379.455.831.831,0,0,0,0,.607l8.5,14.716v.076L27.92,59.621a.773.773,0,0,0,.607.379.824.824,0,0,0,.683-.3c.91-1.138,1.82-2.276,2.731-3.338a.753.753,0,0,0-1.138-.986c-.683.834-1.365,1.669-2.048,2.579L21.017,44.526A116.6,116.6,0,0,1,31.03,33.375a.751.751,0,0,0-1.062-1.062,108.237,108.237,0,0,0-9.709,10.771L10.4,26.018a112.538,112.538,0,0,1,40.126-9.709c-1.669.986-3.262,2.048-4.855,3.11a.768.768,0,1,0,.834,1.29c2.351-1.593,4.779-3.11,7.206-4.475h2.655A110.155,110.155,0,0,1,84.355,19.8c-1.9.607-3.793,1.214-5.613,1.9a.768.768,0,1,0,.531,1.441c2.655-.986,5.386-1.82,8.116-2.655a.754.754,0,0,0,.531-.759A.719.719,0,0,0,87.313,19.039ZM9.564,24.8,1.827,11.378A112.114,112.114,0,0,1,47.87,1.517a110.155,110.155,0,0,1,27.99,3.565,112.208,112.208,0,0,0-22.528,9.709A112.426,112.426,0,0,0,9.564,24.8Z" transform="translate(-0.025)" fill="#fff"/></svg>