<svg xmlns="http://www.w3.org/2000/svg" xmlns:xlink="http://www.w3.org/1999/xlink" width="30" height="30" viewBox="0 0 30 30"><defs><linearGradient id="a" x1="0.5" x2="0.5" y2="1" gradientUnits="objectBoundingBox"><stop offset="0" stop-color="#358ccb"/><stop offset="1" stop-color="#1b547e"/></linearGradient></defs><g transform="translate(-1430 -10)"><circle cx="15" cy="15" r="15" transform="translate(1430 10)" fill="url(#a)"/><path d="M49.747,56.721a.511.511,0,0,1-.511.511H47.061a.511.511,0,0,1-.511-.511V47.6a.511.511,0,0,1,.511-.511h2.175a.511.511,0,0,1,.511.511Zm-1.6-10.488a2.066,2.066,0,1,1,2.066-2.066A2.066,2.066,0,0,1,48.148,46.233ZM62.114,56.762a.47.47,0,0,1-.47.47H59.31a.47.47,0,0,1-.47-.47V52.485c0-.638.187-2.8-1.667-2.8-1.438,0-1.73,1.477-1.789,2.14v4.933a.47.47,0,0,1-.47.47H52.657a.47.47,0,0,1-.47-.47v-9.2a.47.47,0,0,1,.47-.47h2.257a.47.47,0,0,1,.47.47v.8A3.2,3.2,0,0,1,58.4,46.939c3.737,0,3.716,3.492,3.716,5.41v4.413Z" transform="translate(1391 -25.232)" fill="#fff"/></g></svg>