<svg xmlns="http://www.w3.org/2000/svg" xmlns:xlink="http://www.w3.org/1999/xlink" width="14.383" height="20" viewBox="0 0 14.383 20"><defs><linearGradient id="a" x1="0.5" x2="0.5" y2="1" gradientUnits="objectBoundingBox"><stop offset="0" stop-color="#48a1e2"/><stop offset="1" stop-color="#1b547e"/></linearGradient></defs><path d="M20.074,0a7.287,7.287,0,0,0-7.191,7.363,7.328,7.328,0,0,0,.629,3.006,46.482,46.482,0,0,0,6.259,9.489.394.394,0,0,0,.607,0,46.505,46.505,0,0,0,6.259-9.489,7.325,7.325,0,0,0,.629-3.006A7.288,7.288,0,0,0,20.074,0Zm0,11.188a3.785,3.785,0,0,1-3.735-3.825,3.736,3.736,0,1,1,7.471,0A3.785,3.785,0,0,1,20.074,11.188Z" transform="translate(-12.883)" fill="url(#a)"/></svg>