<svg xmlns="http://www.w3.org/2000/svg" viewBox="0 0 69.736 52.664" width="70px" height="52.66px"><defs><style>.a{fill:#172533;opacity:0.09;}</style></defs><g transform="translate(-13849.263 563.664)"><path class="a" d="M-35.072-156.176c0,2.951,1.589,4.54,4.54,4.54h5.675l-9.08,19.976c-.681,1.589,0,2.724,1.816,2.724h10.215a2.753,2.753,0,0,0,2.724-1.589l12.258-18.614a9.751,9.751,0,0,0,1.589-5.675V-177.06c0-2.951-1.589-4.54-4.54-4.54H-30.532c-2.951,0-4.54,1.589-4.54,4.54Z" transform="translate(13924.334 -382.064)"/><path class="a" d="M-35.072-156.176c0,2.951,1.589,4.54,4.54,4.54h5.675l-9.08,19.976c-.681,1.589,0,2.724,1.816,2.724h10.215a2.753,2.753,0,0,0,2.724-1.589l12.258-18.614a9.751,9.751,0,0,0,1.589-5.675V-177.06c0-2.951-1.589-4.54-4.54-4.54H-30.532c-2.951,0-4.54,1.589-4.54,4.54Z" transform="translate(13884.334 -382.064)"/></g></svg>