<svg xmlns="http://www.w3.org/2000/svg" viewBox="0 0 70 52.664" width="70px" height="52.66px"><defs><style>.a{fill:#172533;opacity:0.09;}</style></defs><g transform="translate(-13559 651)"><path class="a" d="M-5.071-156.176c0,2.951-1.6,4.54-4.58,4.54h-5.725l9.16,19.976c.687,1.589,0,2.724-1.832,2.724H-18.354a2.781,2.781,0,0,1-2.748-1.589l-12.366-18.614a9.688,9.688,0,0,1-1.6-5.675V-177.06c0-2.951,1.6-4.54,4.58-4.54h20.84c2.977,0,4.58,1.589,4.58,4.54Z" transform="translate(13594.071 -469.4)"/><path class="a" d="M-5.071-156.176c0,2.951-1.6,4.54-4.58,4.54h-5.725l9.16,19.976c.687,1.589,0,2.724-1.832,2.724H-18.354a2.781,2.781,0,0,1-2.748-1.589l-12.366-18.614a9.688,9.688,0,0,1-1.6-5.675V-177.06c0-2.951,1.6-4.54,4.58-4.54h20.84c2.977,0,4.58,1.589,4.58,4.54Z" transform="translate(13634.071 -469.4)"/></g></svg>