<svg xmlns="http://www.w3.org/2000/svg" width="50" height="49.999" viewBox="0 0 50 49.999">
  <g id="regra-03" transform="translate(-159.5 -5770)">
    <path id="Caminho_4484" data-name="Caminho 4484" d="M83.554,61.827a22.633,22.633,0,1,1-6.629-16.1,22.727,22.727,0,0,1,6.629,16.1" transform="translate(125.945 5735.446)" fill="#fabe2c"/>
    <g id="Caminho_4506" data-name="Caminho 4506" transform="translate(159.5 5770)" fill="none">
      <path d="M22.5,0A22.5,22.5,0,1,1,0,22.5,22.5,22.5,0,0,1,22.5,0Z" stroke="none"/>
      <path d="M 22.5 1.027999877929688 C 19.60083961486816 1.027999877929688 16.78895950317383 1.595569610595703 14.14244079589844 2.714950561523438 C 11.58568954467773 3.796371459960938 9.289279937744141 5.344718933105469 7.317001342773438 7.317001342773438 C 5.344718933105469 9.289279937744141 3.796371459960938 11.58568954467773 2.714950561523438 14.14244079589844 C 1.595569610595703 16.78895950317383 1.027999877929688 19.60083961486816 1.027999877929688 22.5 C 1.027999877929688 25.39916038513184 1.595569610595703 28.21104049682617 2.714950561523438 30.85755920410156 C 3.796371459960938 33.41431045532227 5.344718933105469 35.71072006225586 7.317001342773438 37.68299865722656 C 9.289279937744141 39.65528106689453 11.58568954467773 41.20362854003906 14.14244079589844 42.28504943847656 C 16.78895950317383 43.4044303894043 19.60083961486816 43.97200012207031 22.5 43.97200012207031 C 25.39916038513184 43.97200012207031 28.21104049682617 43.4044303894043 30.85755920410156 42.28504943847656 C 33.41431045532227 41.20362854003906 35.71072006225586 39.65528106689453 37.68299865722656 37.68299865722656 C 39.65528106689453 35.71072006225586 41.20362854003906 33.41431045532227 42.28504943847656 30.85755920410156 C 43.4044303894043 28.21104049682617 43.97200012207031 25.39916038513184 43.97200012207031 22.5 C 43.97200012207031 19.60083961486816 43.4044303894043 16.78895950317383 42.28504943847656 14.14244079589844 C 41.20362854003906 11.58568954467773 39.65528106689453 9.289279937744141 37.68299865722656 7.317001342773438 C 35.71072006225586 5.344718933105469 33.41431045532227 3.796371459960938 30.85755920410156 2.714950561523438 C 28.21104049682617 1.595569610595703 25.39916038513184 1.027999877929688 22.5 1.027999877929688 M 22.5 0 C 34.92641067504883 0 45 10.07358932495117 45 22.5 C 45 34.92641067504883 34.92641067504883 45 22.5 45 C 10.07358932495117 45 0 34.92641067504883 0 22.5 C 0 10.07358932495117 10.07358932495117 0 22.5 0 Z" stroke="none" fill="#c39b29"/>
    </g>
    <g id="Grupo_350" data-name="Grupo 350" transform="translate(130.887 5641.961)">
      <path id="Caminho_4485" data-name="Caminho 4485" d="M43.5,161.691c.943.786,3.458,1.415,6.287,1.415,4.4,0,9.117-2.2,9.117-6.759a4.414,4.414,0,0,0-3.615-4.4h0c2.672-.629,4.558-2.515,4.558-4.873,0-3.615-3.458-4.873-6.916-4.873a14.675,14.675,0,0,0-6.13,1.415l.629,3.93a10.188,10.188,0,0,1,4.4-.943c1.572,0,2.358.629,2.358,1.415,0,1.415-2.043,2.2-4.244,2.2h-.629L48.53,154.3h.629c2.829,0,4.087.786,4.087,2.358,0,1.415-1.415,2.2-3.615,2.2a10.325,10.325,0,0,1-4.716-1.1Z" fill="none"/>
      <path id="Caminho_4486" data-name="Caminho 4486" d="M49.787,162.112a10.686,10.686,0,0,0,5.668-1.511,4.878,4.878,0,0,0,2.454-4.254,3.332,3.332,0,0,0-.8-2.256,3.8,3.8,0,0,0-2.047-1.177l-4.156-.959,4.152-.977c2.3-.542,3.792-2.075,3.792-3.9a3.178,3.178,0,0,0-1.673-2.937,8.6,8.6,0,0,0-4.249-.942,13.988,13.988,0,0,0-5.029,1.012l.313,1.955a11.784,11.784,0,0,1,3.616-.554c2.474,0,3.352,1.3,3.352,2.409a2.787,2.787,0,0,1-1.864,2.528,7.938,7.938,0,0,1-3.181.665l-.406,2.112c2.992.123,4.508,1.246,4.508,3.34,0,1.544-1.211,3.2-4.609,3.2a11.312,11.312,0,0,1-4.141-.755l-.779,2.163a13.457,13.457,0,0,0,5.077.848m0,.994c-2.829,0-5.344-.629-6.287-1.415l1.415-3.93a10.318,10.318,0,0,0,4.715,1.1c2.2,0,3.615-.786,3.615-2.2,0-1.572-1.257-2.358-4.087-2.358H48.53l.786-4.087h.629c2.2,0,4.244-.786,4.244-2.2,0-.786-.786-1.415-2.358-1.415a10.2,10.2,0,0,0-4.4.943l-.629-3.929a14.674,14.674,0,0,1,6.13-1.415c3.458,0,6.916,1.257,6.916,4.873,0,2.358-1.886,4.244-4.558,4.873a4.413,4.413,0,0,1,3.615,4.4C58.9,160.9,54.189,163.106,49.787,163.106Z" fill="#fff"/>
    </g>
  </g>
</svg>
