<svg xmlns="http://www.w3.org/2000/svg" width="50" height="49.999" viewBox="0 0 50 49.999">
  <g id="regra-02" transform="translate(-159.5 -5690)">
    <path id="Caminho_4481" data-name="Caminho 4481" d="M83.554,61.827a22.633,22.633,0,1,1-6.629-16.1,22.727,22.727,0,0,1,6.629,16.1" transform="translate(125.945 5655.445)" fill="#fabe2c"/>
    <g id="Elipse_25" data-name="Elipse 25" transform="translate(159.5 5690)" fill="none" stroke="#c39b29" stroke-miterlimit="10" stroke-width="1.028">
      <circle cx="22.5" cy="22.5" r="22.5" stroke="none"/>
      <circle cx="22.5" cy="22.5" r="21.986" fill="none"/>
    </g>
    <g id="Grupo_349" data-name="Grupo 349" transform="translate(131.652 5623.543)">
      <path id="Caminho_4482" data-name="Caminho 4482" d="M57.374,99.523l.781-4.531H51.437l2.187-1.562c2.968-2.187,6.093-4.687,6.093-8.749,0-3.437-2.5-5.781-6.718-5.781a14.71,14.71,0,0,0-6.718,1.719l.937,3.75a8.583,8.583,0,0,1,4.375-1.094c1.562,0,2.656.781,2.656,2.187,0,2.031-2.344,4.062-5.781,6.874l-4.843,3.906L43,99.523Z" fill="none"/>
      <path id="Caminho_4483" data-name="Caminho 4483" d="M56.536,98.529l.438-2.543h-8.64l2.524-1.8,2.182-1.558a21.858,21.858,0,0,0,3.974-3.5,6.842,6.842,0,0,0,1.708-4.448,4.42,4.42,0,0,0-1.44-3.434A6.375,6.375,0,0,0,53,79.894a13.714,13.714,0,0,0-5.561,1.255l.449,1.8a9.935,9.935,0,0,1,3.706-.665c2.183,0,3.65,1.278,3.65,3.181,0,2.44-2.322,4.515-6.145,7.644l0,0,0,0-4.559,3.677L44.2,98.529H56.536m.837.994H43l.625-3.281,4.843-3.906c3.437-2.812,5.781-4.843,5.781-6.874,0-1.406-1.094-2.187-2.656-2.187a8.584,8.584,0,0,0-4.375,1.094l-.937-3.75A14.71,14.71,0,0,1,53,78.9c4.218,0,6.718,2.343,6.718,5.781,0,4.062-3.125,6.562-6.093,8.749l-2.187,1.562h6.718Z" fill="#fff"/>
    </g>
  </g>
</svg>
