<svg xmlns="http://www.w3.org/2000/svg" width="50" height="49.999" viewBox="0 0 50 49.999">
  <g id="regra-05" transform="translate(-159.5 -5930)">
    <path id="Caminho_4490" data-name="Caminho 4490" d="M83.554,61.827a22.633,22.633,0,1,1-6.629-16.1,22.727,22.727,0,0,1,6.629,16.1" transform="translate(125.945 5895.446)" fill="#fabe2c"/>
    <g id="Elipse_28" data-name="Elipse 28" transform="translate(159.5 5930)" fill="none" stroke="#c39b29" stroke-miterlimit="10" stroke-width="1.028">
      <circle cx="22.5" cy="22.5" r="22.5" stroke="none"/>
      <circle cx="22.5" cy="22.5" r="21.986" fill="none"/>
    </g>
    <g id="Grupo_352" data-name="Grupo 352" transform="translate(31.578 5847.07)">
      <path id="Caminho_4491" data-name="Caminho 4491" d="M158.79,97.93H147.161L144.2,108.842c.842-.063,1.56-.125,2.589-.125,3.929,0,5.081,1.123,5.081,2.744,0,1.9-2.4,2.62-4.3,2.62a9.4,9.4,0,0,1-4.3-1l-1.341,4.208c.873.687,3.024,1.248,5.643,1.248,5.393,0,9.821-2.838,9.821-7.951a5.584,5.584,0,0,0-2.151-4.553,7.8,7.8,0,0,0-4.459-1.341,3.536,3.536,0,0,0-.811.063l.655-2.308h7.233Z" fill="none"/>
      <path id="Caminho_4492" data-name="Caminho 4492" d="M147.921,98.924l-2.4,8.831c.383-.019.792-.032,1.263-.032a8.745,8.745,0,0,1,4.539.913,3.167,3.167,0,0,1,1.537,2.825,3.221,3.221,0,0,1-1.989,2.913,7.718,7.718,0,0,1-3.307.7,11.278,11.278,0,0,1-3.693-.63l-.76,2.386a12.243,12.243,0,0,0,4.453.715,10.537,10.537,0,0,0,6.333-1.857,6.167,6.167,0,0,0,2.494-5.1,4.591,4.591,0,0,0-1.76-3.762,6.852,6.852,0,0,0-3.856-1.138,2.559,2.559,0,0,0-.615.044l-1.6.321.445-1.567.655-2.308.205-.723h7.175l.524-2.532h-9.648m-.76-.994H158.79l-.936,4.52h-7.233l-.655,2.308a3.523,3.523,0,0,1,.811-.063,7.8,7.8,0,0,1,4.459,1.341,5.584,5.584,0,0,1,2.151,4.553c0,5.113-4.428,7.951-9.821,7.951-2.619,0-4.77-.562-5.643-1.248l1.341-4.209a9.384,9.384,0,0,0,4.3,1c1.9,0,4.3-.717,4.3-2.62,0-1.622-1.152-2.744-5.082-2.744-1.028,0-1.746.063-2.588.125Z" fill="#fff"/>
    </g>
  </g>
</svg>
