<svg xmlns="http://www.w3.org/2000/svg" width="50" height="49.999" viewBox="0 0 50 49.999">
  <g id="regra-06" transform="translate(-159.5 -6010)">
    <path id="Caminho_4493" data-name="Caminho 4493" d="M83.554,61.827a22.633,22.633,0,1,1-6.629-16.1,22.727,22.727,0,0,1,6.629,16.1" transform="translate(125.945 5975.446)" fill="#fabe2c"/>
    <g id="Elipse_29" data-name="Elipse 29" transform="translate(159.5 6010)" fill="none" stroke="#c39b29" stroke-miterlimit="10" stroke-width="1.028">
      <circle cx="22.5" cy="22.5" r="22.5" stroke="none"/>
      <circle cx="22.5" cy="22.5" r="21.986" fill="none"/>
    </g>
    <g id="Grupo_353" data-name="Grupo 353" transform="translate(134.283 5767.868)">
      <path id="Caminho_4494" data-name="Caminho 4494" d="M46.2,272.5c-4.029,0-.9-10,2.686-3.432C48.741,269.961,48.741,270.856,46.2,272.5Zm7.908-15.965c-11.041-3.879-24.619,21.784-4.775,19.248C56.047,273.694,55.9,259.52,45.3,264c.453-3.286,9.406-1.5,8.809-7.464Z" fill="none"/>
      <path id="Caminho_4495" data-name="Caminho 4495" d="M46.745,274.962a19.569,19.569,0,0,0,2.378-.157,5.322,5.322,0,0,0,3-2.791,7.528,7.528,0,0,0,.715-4.378,4.48,4.48,0,0,0-1.168-2.528,3.575,3.575,0,0,0-2.635-.99,8.761,8.761,0,0,0-3.342.79l-1.608.679.236-1.729c.274-2.009,2.371-2.621,4.4-3.212a11.018,11.018,0,0,0,3.335-1.356,2.49,2.49,0,0,0,1.084-2.006,6.153,6.153,0,0,0-1.391-.158c-2.6,0-5.469,1.589-7.866,4.359-2.266,2.62-3.675,5.848-3.675,8.426,0,4.175,3.553,5.051,6.534,5.051m-.326-9.124c1.223,0,2.349.925,3.345,2.751l.164.3-.056.339c-.008.049-.016.1-.023.147-.186,1.186-.548,2.3-3.1,3.956l-.246.159H46.2a2.68,2.68,0,0,1-2.261-1.132,3.811,3.811,0,0,1-.623-2.211,5.587,5.587,0,0,1,.724-2.744,2.787,2.787,0,0,1,2.374-1.566m.326,10.118c-14.788,0-4.891-19.824,5.007-19.824a7.1,7.1,0,0,1,2.361.4c.6,5.968-8.356,4.178-8.8,7.46a9.7,9.7,0,0,1,3.729-.868c6.779,0,6.107,10.849.3,12.656A20.484,20.484,0,0,1,46.745,275.956Zm-.326-9.124c-2.22,0-3.246,5.665-.214,5.665,2.537-1.641,2.537-2.536,2.686-3.432C48.005,267.443,47.148,266.832,46.418,266.832Z" fill="#fff"/>
    </g>
  </g>
</svg>
