<svg xmlns="http://www.w3.org/2000/svg" width="48" height="47.999" viewBox="0 0 48 47.999">
  <g id="regra-04" transform="translate(-159.5 -5850)">
    <path id="Caminho_4487" data-name="Caminho 4487" d="M83.554,61.827a22.633,22.633,0,1,1-6.629-16.1,22.727,22.727,0,0,1,6.629,16.1" transform="translate(123.945 5813.446)" fill="#fabe2c"/>
    <g id="Elipse_27" data-name="Elipse 27" transform="translate(159.5 5850)" fill="none" stroke="#c39b29" stroke-miterlimit="10" stroke-width="1.028">
      <circle cx="22.5" cy="22.5" r="22.5" stroke="none"/>
      <circle cx="22.5" cy="22.5" r="21.986" fill="none"/>
    </g>
    <g id="Grupo_351" data-name="Grupo 351" transform="translate(130.879 5673.54)">
      <path id="Caminho_4488" data-name="Caminho 4488" d="M48.561,202.083h0l2.417-3.383c1.128-1.45,1.933-2.9,2.9-4.35h.161c-.322,1.45-.806,2.9-1.128,4.35l-.806,3.383Zm7.894,4.028h2.256l.806-4.189H57.261L59.516,190H52.589l-9.344,12.4L42.6,205.95h8.7l-.967,4.833h5.155Z" fill="none"/>
      <path id="Caminho_4489" data-name="Caminho 4489" d="M54.679,209.789l.8-3.88.164-.792H57.89l.423-2.2H56.061l.223-1.179,2.033-10.743H53.084l-8.9,11.821-.389,2.141h8.721l-.238,1.189-.729,3.644h3.134m-1.334-16.433h1.932l-.269,1.21c-.167.75-.375,1.5-.576,2.225-.195.7-.4,1.425-.551,2.124l0,.008,0,.007-.806,3.383-.182.764H46.629l1.123-1.572,2.417-3.383.012-.016.013-.016a33.536,33.536,0,0,0,1.912-2.82c.3-.48.616-.977.945-1.471l.3-.443m2.143,17.427H50.333l.967-4.833H42.6l.644-3.545L52.589,190h6.928l-2.256,11.922h2.256l-.806,4.189H56.455ZM53.877,194.35c-.967,1.45-1.772,2.9-2.9,4.35l-2.417,3.383h3.544l.806-3.383c.322-1.45.806-2.9,1.128-4.35Z" fill="#fff"/>
    </g>
  </g>
</svg>
