<svg xmlns="http://www.w3.org/2000/svg" width="50" height="49.999" viewBox="0 0 50 49.999">
  <g id="regra-07" transform="translate(-159.5 -6090)">
    <path id="Caminho_4496" data-name="Caminho 4496" d="M83.554,61.827a22.633,22.633,0,1,1-6.629-16.1,22.727,22.727,0,0,1,6.629,16.1" transform="translate(125.945 6055.446)" fill="#fabe2c"/>
    <g id="Elipse_30" data-name="Elipse 30" transform="translate(159.5 6090)" fill="none" stroke="#c39b29" stroke-miterlimit="10" stroke-width="1.028">
      <circle cx="22.5" cy="22.5" r="22.5" stroke="none"/>
      <circle cx="22.5" cy="22.5" r="21.986" fill="none"/>
    </g>
    <g id="Grupo_354" data-name="Grupo 354" transform="translate(136.396 5764.03)">
      <path id="Caminho_4497" data-name="Caminho 4497" d="M42.271,340.3l-.8,4.626h8.773c-2.393,3.669-6.38,9.411-10.846,15.95,8.932,1.755,13.717-11.165,17.7-20.576Z" fill="none"/>
      <path id="Caminho_4498" data-name="Caminho 4498" d="M43.108,341.294l-.455,2.638h9.428l-1,1.537c-1.72,2.636-4.257,6.336-7.2,10.62q-1.319,1.923-2.708,3.952c2.872-.066,5.527-1.975,8.113-5.829,2.409-3.59,4.4-8.337,6.155-12.525l.165-.393h-12.5m-.837-.994H57.1c-3.74,8.826-8.18,20.737-16.086,20.737a8.391,8.391,0,0,1-1.619-.161c4.466-6.54,8.454-12.282,10.846-15.95H41.473Z" fill="#fff"/>
    </g>
  </g>
</svg>
