<svg xmlns="http://www.w3.org/2000/svg" xmlns:xlink="http://www.w3.org/1999/xlink" width="425.687" height="420.128" viewBox="0 0 425.687 420.128"><defs><linearGradient id="a" x1="0.5" x2="0.5" y2="1.292" gradientUnits="objectBoundingBox"><stop offset="0" stop-color="#48a1e2"/><stop offset="1" stop-color="#1b547e"/></linearGradient><linearGradient id="b" x1="0.5" x2="0.5" y2="1.297" xlink:href="#a"/></defs><g transform="translate(-143 -1014.872)"><path d="M222.289,419.751a1.022,1.022,0,0,0-.642-.67,30.277,30.277,0,0,1-.612-5.931,19.8,19.8,0,0,0-.255-3.156l0-.012,0-.013-.053-.177c-.414-1.688-.885-3.6-3.1-4.611l-.008,0-.008,0a2.933,2.933,0,0,0-1.766-.13,1.045,1.045,0,0,1-.209.021,1.139,1.139,0,0,1-.147-.01,2.45,2.45,0,0,0-.7-1.024l-.018-.015L214.74,404a3.452,3.452,0,0,0-1.353-.546,1.54,1.54,0,0,1-.385-.122,1.08,1.08,0,0,1-.276-.55l0-.019,0-.018a3.837,3.837,0,0,0-.464-1.032,3.745,3.745,0,0,0-2.5-1.7,4.309,4.309,0,0,1-1.011-.386.509.509,0,0,1-.054-.077,2.457,2.457,0,0,0-.841-.874l-.032-.02-.036-.013a7.1,7.1,0,0,0-1.758-.414,8.763,8.763,0,0,1-.886-.168l-.018,0-.018,0a3.443,3.443,0,0,1-1.052-.232c-.122-.082-.208-.27-.409-.724l0,0,0,0-.09-.189a1.021,1.021,0,0,0-.572-.542c-.915-1.738-1.833-2.741-2.727-2.98a1.99,1.99,0,0,0-.5-.064,1.967,1.967,0,0,0-1.817,1.2,1.456,1.456,0,0,1-.565.564,1.865,1.865,0,0,1-.733.165,1.1,1.1,0,0,1-.8-.292,11.369,11.369,0,0,1-.416-1.283,9.014,9.014,0,0,0-1.06-2.6l-.007-.012-.008-.011a6.621,6.621,0,0,0-2.962-2.342,7.566,7.566,0,0,1-1.806-1.131,4.176,4.176,0,0,1-.646-.984,4.574,4.574,0,0,0-1.118-1.533l-.022-.02-.025-.016a18.4,18.4,0,0,0-2.355-1.131c-.7-.3-1.418-.612-1.985-.9a3.929,3.929,0,0,1-.886-.557c.384-.351.8-.67,1.24-1.006l.135-.1a12.382,12.382,0,0,0,2.579-2.359l0,0,0,0c.289-.372.532-.752.767-1.12l.118-.184.006-.01.006-.009a8.484,8.484,0,0,1,1.333-1.77,12.225,12.225,0,0,1,1.341-.991,10.679,10.679,0,0,0,2.016-1.6l0,0,0,0a11.624,11.624,0,0,0,.963-1.2l0,0v0a14.563,14.563,0,0,1,1.487-1.814l0,0,0,0c.2-.222.433-.515.653-.8a15.524,15.524,0,0,1,2.3-2.077c1.063-.849,1.341-1.084,1.352-1.39v-.033a1.816,1.816,0,0,1,.219-.959,5.934,5.934,0,0,1,1.847-1.176l.011,0,.012-.006a13.7,13.7,0,0,0,1.217-.662l.008-.006.008-.006,1.034-.708,0,0,0,0a52.889,52.889,0,0,1,5.335-3.337c1.76-.953,3.339-1.943,5.167-3.137l1.6-1.01c.517-.316,1.705-.879,2.754-1.376,2.395-1.136,2.575-1.251,2.661-1.5a5.951,5.951,0,0,0,.347-2.517v-.012c-.037-.336-.085-.689-.142-1.05-.182-1.3-.365-5.982-.369-6.222a4.351,4.351,0,0,0-.2-1.466l-.015-.047-.026-.041a3.357,3.357,0,0,0-1.052-1.052,1.385,1.385,0,0,1-.449-.482,2.4,2.4,0,0,1-.2-.646l0-.014,0-.014a6.917,6.917,0,0,0-.217-.741l0-.013-.006-.013a20.025,20.025,0,0,0-2.854-3.741,16.284,16.284,0,0,1-1.779-2.223,5.073,5.073,0,0,0,.148-1.19v-.435c.415-1.626-.358-4.852-.712-6.175a24.033,24.033,0,0,0-2.513-6.324c-.442-.66-.835-1-1.238-1.051a9.36,9.36,0,0,0-1.671-.211,3.761,3.761,0,0,0-2.531,1.108,5.09,5.09,0,0,1-1.172.653l-.016.006-.016.008-.011,0h-.481l-.034.006a3.537,3.537,0,0,1-1.594-.084c-.3-.33-.212-1.136-.142-1.8a5.158,5.158,0,0,0,.069-.988v-.012a6.752,6.752,0,0,0-.93-3.216l-.068-.144c-.12-.253-.233-.493-.346-.755a6.345,6.345,0,0,1-.375-3.276l0-.029v-.639a6.6,6.6,0,0,0-1.658-4.309l-.3-.419a4.266,4.266,0,0,1-.367-.771,4.645,4.645,0,0,0-.691-1.307l-.006-.008-.006-.008a4.3,4.3,0,0,0-3.614-1.191h-.062a8.57,8.57,0,0,1-1.04-.064,2.965,2.965,0,0,1-.771-.528l-.013-.012-.013-.011a3.846,3.846,0,0,0-2.288-1.09,2.129,2.129,0,0,0-.848.18,1.038,1.038,0,0,0-.55.563,1.028,1.028,0,0,0-.066.578,5.117,5.117,0,0,1-.977.072,20.165,20.165,0,0,1-2.278-.161l-.022,0h-.332c-.1,0-.2-.006-.3-.006a6.826,6.826,0,0,0-2.474.462l-.006,0-.006,0a3.919,3.919,0,0,1-2.07.278,1.16,1.16,0,0,1-.105-.208l-.011-.029-.015-.026a2.612,2.612,0,0,0-.613-.722l-.013-.011-.013-.009a6.224,6.224,0,0,0-1.418-.725c-.212-.079-.445-.181-.749-.316l-.011,0-.012,0c-.128-.048-.3-.1-.519-.156l-.21-.059-.426-.118c-.287-.079-.739-.2-.942-.271a4.327,4.327,0,0,1,.037-1.356,8.948,8.948,0,0,0,.078-.972v-.037a12.55,12.55,0,0,0-.249-1.744c-.236-1.294-.293-1.922.148-2.466a3.579,3.579,0,0,1,.494-.461c.776-.557.782-1.064.782-2.062a5.835,5.835,0,0,0-.262-2.442l-.011-.034-.017-.031a2.43,2.43,0,0,0-1.276-1.11,1.02,1.02,0,0,1-.281-.159,3.771,3.771,0,0,1-.491-1.8v-.025l0-.025c-.015-.1-.034-.2-.052-.292a2.366,2.366,0,0,1-.056-.4v-.039l-.008-.037a6.873,6.873,0,0,0-.755-2.044c-.488-.978-.55-1.2-.186-1.659.118-.111.239-.217.362-.314a2.808,2.808,0,0,0,1.352-2.389v-.02l0-.02a2.029,2.029,0,0,0-1.56-1.77,1.481,1.481,0,0,1-.206-.088c-.221-.373-.072-.916.276-1.763l0-.006,0-.006c.1-.261.189-.512.256-.721a7.274,7.274,0,0,0,.294-1.209l0-.015v-.015a3.134,3.134,0,0,1,.43-1.365,1.832,1.832,0,0,1,.529-.234,3.42,3.42,0,0,0,1.3-.672l.007-.006.006-.006c1.2-1.081.962-2.517.79-3.566v-.232l-.02-.059a3.347,3.347,0,0,1,.259-2.669l.012-.02.009-.022a6.63,6.63,0,0,0,.406-1.445,4.648,4.648,0,0,1,.245-.931,1.011,1.011,0,0,1,.4-.356l.011-.006.011-.006a3.681,3.681,0,0,0,.949-.782l0,0a1.022,1.022,0,0,0-.421-1.64l-.018-.006a1.628,1.628,0,0,1-.318-.593c-.134-.346-.254-.756-.349-1.085v0a7.457,7.457,0,0,0-.853-2.094l-.012-.019-.013-.018a3.333,3.333,0,0,1-.674-1.7v-.26l0-.018a3.754,3.754,0,0,0-.2-.914.6.6,0,0,0-.037-.241,4.762,4.762,0,0,0-1.019-1.31c-.621-.607-1.112-.915-1.46-.915h-.041a1.523,1.523,0,0,1-.581-.114,1.354,1.354,0,0,1-.426-.665l-.009-.031-.014-.029a3.865,3.865,0,0,0-.808-1.128l0,0,0,0a3.34,3.34,0,0,0-1.053-.653,1.472,1.472,0,0,1-.435-.258c-.564-.562-.723-2.4-.808-3.39v-.008c-.012-.111-.026-.217-.039-.32a4.914,4.914,0,0,1-.052-.57v-.226l-.012-.048a2.39,2.39,0,0,1,.027-1.291,1.682,1.682,0,0,1,.165-.067,2.517,2.517,0,0,0,1.268-.907,2.263,2.263,0,0,0,.266-2.37l-.009-.02-.013-.019a2.686,2.686,0,0,0-2.477-.991c-.249,0-.522.012-.835.036h-.013l-1.016.112h-.011l-.011,0a14.289,14.289,0,0,1-2.37.2c-.443,0-.891-.021-1.332-.063a11.24,11.24,0,0,1-1.617-.321,8.237,8.237,0,0,0-3.414-.339h-.011l-.011,0a18.617,18.617,0,0,0-2.041.465l-.011,0a10.047,10.047,0,0,1-2.443.456,2.773,2.773,0,0,1-2.084-.888c-1.015-1.059-1.089-2.106-1.089-3.7a16.572,16.572,0,0,0-.124-2.048,7.094,7.094,0,0,0-.738-2.488c-.1-.2-.185-.393-.273-.618l-.008-.02-.01-.018a3.059,3.059,0,0,1-.081-1.247,2,2,0,0,1,.351-1.156l.008-.007.008-.007c1.124-1,.492-2.75.03-4.029l-.006-.018,0-.007,0-.007a6.1,6.1,0,0,1-.279-.87l-.078-.362a3.768,3.768,0,0,0-1.37-2.6l-.008-.006-.008-.006a1.032,1.032,0,0,1-.391-.585,7.59,7.59,0,0,1-.161-2.024,1.712,1.712,0,0,1,.3-.484,2.83,2.83,0,0,0,.709-1.378l.011-.055,0-.057a5.815,5.815,0,0,0-1.8-3.693l-.027-.025-.031-.02a27.525,27.525,0,0,0-3.365-1.242c-.376-.126-.731-.245-.794-.271a17.756,17.756,0,0,0-5.415-1.341l-.025,0h-.026a5.509,5.509,0,0,0-1.533.29,4.4,4.4,0,0,1-.954.217,4.4,4.4,0,0,1-.625-.184,4.774,4.774,0,0,0-1.56-.323h-.072a4.326,4.326,0,0,0-1.35.215l-.017.006-.016.007a.7.7,0,0,1-.542.006,8.749,8.749,0,0,1-1.57-1.1,3.619,3.619,0,0,1-.557-.623,3.965,3.965,0,0,0-1.513-1.4,5.794,5.794,0,0,0-1.367-.508l-.127-.036c-.191-.056-.372-.109-.52-.169a10.173,10.173,0,0,0-2.321-.7h-.022a5.449,5.449,0,0,1-2.488-.946,4.189,4.189,0,0,1-.836-.972,3.918,3.918,0,0,0-3.1-1.92c-.212-.018-.426-.026-.639-.026s-.429.009-.642.026h-.014l-.013,0a4.248,4.248,0,0,1-.626.047,4.17,4.17,0,0,1-.56-.038,2.793,2.793,0,0,1-.89-.786l0,0,0,0a5.016,5.016,0,0,0-1.6-1.352l-.008,0-.008,0a4.956,4.956,0,0,0-2.18-.444,15.625,15.625,0,0,0-2.316.234l-.052.008h-.013l-.013,0a9.111,9.111,0,0,1-1.948.212c-.168,0-.338,0-.506-.014a2.029,2.029,0,0,1-.979-.338,1.674,1.674,0,0,1-.365-.665,4.858,4.858,0,0,0-1.348-2.07,4.4,4.4,0,0,0-1.446-.935l-.011,0-.011,0a1.838,1.838,0,0,1-.909-.66l-.311-.488a5.053,5.053,0,0,0-1.364-1.62l-.021-.017-.022-.013a7.283,7.283,0,0,1-3.812-6.367,1.351,1.351,0,0,1,.13-.525l0-.01,0-.011a4.357,4.357,0,0,0,.276-1.023l0-.02v-.021a6.424,6.424,0,0,0-.539-2.793l-.2-.572a9.471,9.471,0,0,1-.45-3.99,1.174,1.174,0,0,1,.132-.294,3.091,3.091,0,0,0,.457-1.256,5.19,5.19,0,0,0,.025-1.079,1.015,1.015,0,0,0,.272-1.053,3.135,3.135,0,0,1-.072-1.073,4.046,4.046,0,0,0-.2-1.751l0-.009,0-.008c-.4-1.012-1.014-1.526-1.81-1.526a2.721,2.721,0,0,0-.839.159l-.01,0-.036.011-.034.019a.267.267,0,0,1-.038.017,1.976,1.976,0,0,0-.913.339l-.058.034a.576.576,0,0,1-.107-.06l-.011-.007-.011-.007a3.007,3.007,0,0,0-.994-.384l-.027-.006h-.028c-.093,0-.189-.007-.283-.007a5.58,5.58,0,0,0-1.82.3c-.066.019-.128.041-.188.062a1,1,0,0,1-.309.078h-.041l-.04.008c-.051.011-.251.021-.444.032a22.027,22.027,0,0,0-3.932.516,18.917,18.917,0,0,0-6,2.487,8.638,8.638,0,0,0-1.937,1.417l0,0,0,0a6.209,6.209,0,0,1-3.076,1.709H69.1a7.9,7.9,0,0,0-2.341.979l-.015.009-.013.01a3.058,3.058,0,0,0-1.153,1.793,1.86,1.86,0,0,1-.332.715l-.006.007,0,.008c-.24.35-.355.423-.41.423a2.114,2.114,0,0,1-.63-.281,4.9,4.9,0,0,0-1.419-.572l-.007,0h-.007a3.213,3.213,0,0,0-.6-.06c-1.664,0-2.477,1.423-3.015,2.363l-.009.015-.007.016a3.956,3.956,0,0,1-.948,1.3c-2.061,1.6-3.086,1.95-3.585,1.959a11.242,11.242,0,0,1-3.389-.942l0,0,0,0c-.475-.2-.946-.379-1.4-.525l-.008,0-.008,0a10.263,10.263,0,0,0-2.825-.293,16.586,16.586,0,0,1-1.735-.073H45.2l-1.047-.082a7.485,7.485,0,0,0-2.87.109,8.888,8.888,0,0,1-1.279.186,8.028,8.028,0,0,0-1.571.235h-.01a4.84,4.84,0,0,0-1.337.608,3.2,3.2,0,0,1-.99.439,1.281,1.281,0,0,1-.419-.327l-.016-.019-.018-.018-.2-.182a1.048,1.048,0,0,0-.016-.14l-.007-.036-.013-.034c-.627-1.615-.37-4.547-.217-6.3v-.4a46.707,46.707,0,0,1,1.643-9.6,1.018,1.018,0,0,0-.344-1.092,1.04,1.04,0,0,0-1.143-.116l-.01,0-.01.006a20.7,20.7,0,0,0-3.716,2.843l-.571.506a15.533,15.533,0,0,0-1.136,1.108l-.011.011-.01.012a5.384,5.384,0,0,1-2.361,1.715h-.163l-.052.015a19.172,19.172,0,0,1-4.253.855,2.652,2.652,0,0,1-.5-.041l-.418-.189a3.482,3.482,0,0,0-1.128-.416,4.609,4.609,0,0,0-1.183-.154c-.129,0-.259.006-.388.016h-.013a2.256,2.256,0,0,1-.266.016,2.222,2.222,0,0,1-.615-.086c-.234-.125-.3-.317-.463-1a6.582,6.582,0,0,0-.572-1.666l-.007-.015-.008-.013a9.491,9.491,0,0,0-2.234-2.518,75.224,75.224,0,0,1-5.678-6.086c-.383-.477-.789-.942-1.219-1.434l-.381-.437,0,0,0,0A34.13,34.13,0,0,1,5.4,148.376a2.983,2.983,0,0,1-.5-1.25v-.013a6.373,6.373,0,0,0-.56-1.657l-.11-.253a2.479,2.479,0,0,0-1.1-1.362l-.013-.007-.013-.007a2.452,2.452,0,0,0-.842-.238h0a1.047,1.047,0,0,0,.436-.357,1.009,1.009,0,0,0,.118-.983v0a7.834,7.834,0,0,0-1.53-2.313,5.609,5.609,0,0,1-.989-1.458A8.765,8.765,0,0,1,0,136.332a7.676,7.676,0,0,1,.819-3.752,6.654,6.654,0,0,1,4.443-3.191l.046-.012.041-.022a3.012,3.012,0,0,1,.6-.244,2.651,2.651,0,0,0,1.972-1.756l0-.008,0-.008a3.923,3.923,0,0,0,0-2.14l0-.012,0-.011a2.022,2.022,0,0,1-.1-.914.952.952,0,0,0-.025-.739l-.006-.012-.006-.011a.918.918,0,0,0-.393-.383,3.56,3.56,0,0,1,.044-1.84,2.905,2.905,0,0,1,.673-.949A4.389,4.389,0,0,0,9.415,117.9l0-.013v-.013l.084-.754V117.1a8.58,8.58,0,0,1,.631-2.866,2.009,2.009,0,0,1,.543-.474,2.826,2.826,0,0,0,1.345-1.705l.006-.021,0-.021c.008-.052.014-.1.018-.155l.041,0a4,4,0,0,0,2.187-.809,11.654,11.654,0,0,0,1.5-1.228h0l0,0a9.248,9.248,0,0,1,1.395-1.147,24.859,24.859,0,0,1,10.3-3.285h.793a4.615,4.615,0,0,0,3.429-.679l.022-.014.02-.017a3.718,3.718,0,0,0,.972-1.338c.262-.5.368-.643.616-.717a5.933,5.933,0,0,1,3.743.666c.155.112.186.184.191.195v.021a1.028,1.028,0,0,0,.822.97,3.881,3.881,0,0,0,3.218-.573l.028-.02.024-.024a4.989,4.989,0,0,0,1.456-3.444,1.041,1.041,0,0,0,.231-.555V99.84a48.1,48.1,0,0,1,1-6.782c.281-1.242.479-2.556.638-3.612v-.01a36.237,36.237,0,0,1,.773-4.152c1.254-4.743,2.387-9.379,2.472-13.951v-.007c0-2.212-.259-2.861-1.735-4.336a7.184,7.184,0,0,1-1.1-1.29c.03-.035.064-.072.083-.093a2.136,2.136,0,0,0,.54-.929l0-.013,0-.013c.5-2.449-2.164-4.988-4.334-5.929a.465.465,0,0,0-.164-.1c-.374-.212-.44-.393-.514-1.3V56.91a24.9,24.9,0,0,1,.08-5.29c.186-.768.782-.96,2.3-1.268.342-.061.663-.128.953-.2h.006L44.6,50l.018,0,.018-.006a3.079,3.079,0,0,1,1.073-.193c.1,0,.206.006.308.015a2.4,2.4,0,0,1,.682.328h0a3.729,3.729,0,0,0,1.021.484,2.253,2.253,0,0,0,2.6-.685l0,0,0-.006a3.561,3.561,0,0,0,.512-2.488,5.634,5.634,0,0,0-.739-2.262,3.205,3.205,0,0,0-3.051-1.76,10.637,10.637,0,0,0-1.373.117h-.006l-.241.036a4.647,4.647,0,0,1-.7.073h-.032l-.032.006a1.529,1.529,0,0,1-.24.02,1.47,1.47,0,0,1-.829-.255c-.239-.244-.239-.97-.239-1.737a14.88,14.88,0,0,0-.105-1.817,2.229,2.229,0,0,1,.217-1.65,4.64,4.64,0,0,1,1.789-1.077,2.635,2.635,0,0,1,.921-.308,2.144,2.144,0,0,1,.6.142.793.793,0,0,1,.07.067,1.9,1.9,0,0,0,.7.52l.022.009.023.007a7.1,7.1,0,0,0,3.433.142l.585-.07c.782,0,1.609-.011,2.362-.086.736-.073,1.493-.073,2.225-.073.083,0,.2.013.327.028a5.819,5.819,0,0,0,.651.046c.136.013.3.019.477.019,2.029,0,7.252-.865,8.031-1.424l.008-.006.008-.006a9.737,9.737,0,0,0,1.7-1.737A8.279,8.279,0,0,1,68.5,33.214c.1.14.2.285.291.434l0,.006,0,.006a11.087,11.087,0,0,0,.721.962A11.423,11.423,0,0,0,70.7,35.869l.155.154c.207.205.421.418.613.632l.174.2c.322.388.628.791.912,1.2-.041.035-.084.069-.128.1a2.409,2.409,0,0,0-1.195,2.122V40.3l0,.022c.257,1.925,2.328,2.585,3.994,3.114l.012,0,.012,0a6.242,6.242,0,0,1,1.717.714,2.642,2.642,0,0,1,.609.957,3.592,3.592,0,0,0,1.152,1.641,4.987,4.987,0,0,0,3.036.82,6.369,6.369,0,0,0,2.083-.3A3.367,3.367,0,0,0,85.464,46v0h0a1.677,1.677,0,0,1,.667-.584,10.971,10.971,0,0,1,2.038-.34c0,.05-.008.1-.013.14-.011.115-.021.225-.025.323a2.5,2.5,0,0,0,.391,2.154l.024.032.029.027a1.867,1.867,0,0,0,1.251.48,1.913,1.913,0,0,0,.341-.031c.055,0,.109.007.164.007a1.8,1.8,0,0,0,1.78-2.033.924.924,0,0,1,.1-.471l.019-.027H92.3c.041,0,.089,0,.143,0a2.6,2.6,0,0,0,.473.043,2.564,2.564,0,0,0,1.057-.226l.013-.006L94,45.487a2.457,2.457,0,0,0,1.284-2.061.969.969,0,0,1,.051-.265,1.539,1.539,0,0,1,.578-.114c.046,0,.093,0,.139.006h.024l.115,0a3.86,3.86,0,0,0,1.573-.333l.02-.009L97.8,42.7A4.707,4.707,0,0,0,99.09,41.6l.006-.007.006-.007a1.39,1.39,0,0,1,.989-.559,3.914,3.914,0,0,0,2.309-.9l.549-.4h0l0,0a3.477,3.477,0,0,1,1.159-.574,3.118,3.118,0,0,0,2.506-3.28,5.288,5.288,0,0,0-.14-1,3.253,3.253,0,0,1-.1-.6,3.824,3.824,0,0,1,.747-.074c.085,0,.17,0,.255.008.115.008.231.012.346.012a5.19,5.19,0,0,0,.937-.086h.265l.022,0a4.208,4.208,0,0,0,1.488-.462l.039-.02.033-.029a1.97,1.97,0,0,0,.581-.852,1.007,1.007,0,0,0,.578.253,2.884,2.884,0,0,0,.647.06.423.423,0,0,0,.089.01.618.618,0,0,0,.463-.281c.442-.57,1.592-3.133,1.343-4.13a2.14,2.14,0,0,0-1.23-1.479l-.02-.008-.021-.007a2.569,2.569,0,0,0-2.4.494,2.754,2.754,0,0,1-.365.218,1.31,1.31,0,0,1-.393-.066l-.01,0-.011,0a2.569,2.569,0,0,0-1.147-.042,6.049,6.049,0,0,0-1.845-.834,2.984,2.984,0,0,0-.752-.082c-.1,0-.2,0-.307.006h-.016c-.088,0-.17.006-.245.006a1.062,1.062,0,0,1-.243-.018,3.4,3.4,0,0,1-.055-.957c0-.127.007-.257.007-.383a9.151,9.151,0,0,0,0-1.118,16.361,16.361,0,0,0-.2-2.152c-.017-.133-.037-.264-.057-.391a5.816,5.816,0,0,1-.088-.849v-.027a1.039,1.039,0,0,0-.829-.941.78.78,0,0,1,.081-.34l.006-.012,0-.013a1.464,1.464,0,0,1,.523-.648l.006,0,.006,0a3.96,3.96,0,0,0,1.3-1.676,3.266,3.266,0,0,0-.416-3.4,3.656,3.656,0,0,1-.527-1.214l-.092-.548v0a.534.534,0,0,1,.08-.478c.327-.391,1.493-.391,1.877-.391.2,0,.417,0,.688.013a5.092,5.092,0,0,1,2.192.649l0,0,0,0a7.546,7.546,0,0,0,2.837.855h.83l.028,0a4.661,4.661,0,0,1,2.266.229,1.142,1.142,0,0,1,.362.531l0,.009,0,.008a2.922,2.922,0,0,0,1.258,1.484l.012.007.013.006a4.263,4.263,0,0,0,1.859.43,4.209,4.209,0,0,0,1.746-.376,2.524,2.524,0,0,0,1.452-1.718l0-.012,0-.011a4.011,4.011,0,0,0-.069-1.722,2.745,2.745,0,0,1-.087-.63c0-.035.007-.058.107-.133l0,0,0,0a5,5,0,0,1,2.384-.54c1.067-.088,2.183-.088,2.781-.088a2.523,2.523,0,0,1,.272.027,4.463,4.463,0,0,0,.555.047,16.609,16.609,0,0,0,1.676.117,2.961,2.961,0,0,0,1.559-.332,1.5,1.5,0,0,0,.792-1.731.034.034,0,0,1,0-.008.77.77,0,0,1,.052-.084c.039-.011.128-.022.2-.031a3.712,3.712,0,0,0,1.6-.5l0,0,0,0a2.393,2.393,0,0,0,1.024-1.345V6.433a.275.275,0,0,1,.076-.127l.008-.007.007-.008c.13-.135.144-.15.4-.15h.025a4.492,4.492,0,0,0,.949-.163,4.273,4.273,0,0,0,.543-.194,1.653,1.653,0,0,1,.482-.128l.018,0,.018,0a3.493,3.493,0,0,1,.7-.069c.047,0,.1,0,.143,0h.006l.151,0a5.931,5.931,0,0,0,1.6-.221l.008,0,.009,0a2.415,2.415,0,0,0,1.523-1.523,1.06,1.06,0,0,1,.048-.118l.015,0a1.037,1.037,0,0,0,.879-.986,1.077,1.077,0,0,0,.069-.331,2.2,2.2,0,0,1,.646-.522l.015-.008.014-.009A44.172,44.172,0,0,1,150.073,0a2.147,2.147,0,0,1-.235,1.489h-.025l-.054.019a1.769,1.769,0,0,0-1.188,1.62v.012c-.222,1.737.621,2.177,1.566,2.394.038.009.077.017.118.025a2.669,2.669,0,0,1,.279.069l.023.008.023,0,.447.083a4.1,4.1,0,0,1,1.312.381,1.812,1.812,0,0,1,.642.989,9.539,9.539,0,0,0,1.879,3.738l0,0,0,0a3.463,3.463,0,0,0,.566.52s0,0,0,.006l-.006.025,0,.026c-.024.271-.606.717-.924.959a6.994,6.994,0,0,0-.773.637l-.008.007-.007.008a8.243,8.243,0,0,0-1.857,3.162,10.367,10.367,0,0,1-.68,1.53l0,0,0,0a5.917,5.917,0,0,0-.649,2.818,6.212,6.212,0,0,1-.262,1.805,1.028,1.028,0,0,0,.137.918c-.031,1.749.045,3.861.806,5.066a2.58,2.58,0,0,0,.655.731l.185.142a10.475,10.475,0,0,1,.348,1.336v0c.03.151.057.256.09.389.02.081.043.172.072.293.072.307.135.634.2.951a5.625,5.625,0,0,0,1.4,3.29l.015.017.017.015a7.7,7.7,0,0,1,1.667,2.128v0l0,0a3.827,3.827,0,0,0,1.835,1.655c.193.1.411.206.644.346a3.129,3.129,0,0,1,.437.447,3.64,3.64,0,0,0,1.277,1.117l.022.011.023.009a3.75,3.75,0,0,0,1.355.191h.163a1.979,1.979,0,0,1,.583.054c.43.156,6.037,0,6.083-.47a.843.843,0,0,1,.14-.428c.456-.671,1.043-.671,2.03-.671a5.279,5.279,0,0,0,1.993-.288,2.344,2.344,0,0,0,1.165-1.136.785.785,0,0,1,.214-.317,3.18,3.18,0,0,1,1.732-.084,4.516,4.516,0,0,0,1.938,0,2.013,2.013,0,0,0,1.378-1.174,1.661,1.661,0,0,1,.28-.437,3.045,3.045,0,0,1,1.983-1,12.259,12.259,0,0,1,2.673,0,15.692,15.692,0,0,0,2.208.084,18.241,18.241,0,0,1,5.179.317c1.518.4,3.521.689,4.452-.317a2.428,2.428,0,0,0,.158-2.617,4.521,4.521,0,0,0-.568-.82,4.616,4.616,0,0,1-.484-.689,2.872,2.872,0,0,1-.3-.466l.065-.055a4.046,4.046,0,0,0,.717-.727l.149-.2a3.072,3.072,0,0,0,.438-.7h.046a3.215,3.215,0,0,0,1.509.931,5.643,5.643,0,0,0,3.391-1.043,7.793,7.793,0,0,1,1.6-.735c1.854-.522,4.378-.726,5.524.074a1.244,1.244,0,0,1,.494.606.652.652,0,0,0-.186.931,2.149,2.149,0,0,0,.317.382c-.019.559-.084,1.155-.158,1.77a23.3,23.3,0,0,0-.187,2.338,2.4,2.4,0,0,0,.354,1.863c.373.437.895.437,1.612.437h.587a5.113,5.113,0,0,1,3.344,1.742.616.616,0,0,0,.345.456h.046a3.828,3.828,0,0,1,.41.68.643.643,0,0,0,1.22-.177h.074c.5.066,9.416,13.144,9.567,13.712a1.284,1.284,0,0,0,.5.475c.056.056.14.121.14.056a5.065,5.065,0,0,1,.186.605,8.91,8.91,0,0,0,.28.867c.642,1.667,1.416,3.5,2.45,4.192.384.269,7.269,11.1,27.314,5.035a.315.315,0,0,1-.093-.283c.054-.345.535-.785.982-1.042l.053-.031.041-.045a3.01,3.01,0,0,0,.763-2.388,3.075,3.075,0,0,1,.116-1.012c.032-.07.068-.149.36-.206a.279.279,0,0,1,.053,0,1.457,1.457,0,0,1,.51.2l.119.06.011,0,.011,0a3.676,3.676,0,0,0,1.875.271h.012a4.5,4.5,0,0,0,2.172-.958,3.158,3.158,0,0,1,1.036-.571c.177-.018.357-.026.535-.026a5.562,5.562,0,0,1,.572.029,6.811,6.811,0,0,0,.8.047,7.013,7.013,0,0,0,.8-.047l.018,0,.018,0a5.278,5.278,0,0,0,.813-.241l.013,0,.012-.006a1.951,1.951,0,0,1,.492-.154,1.692,1.692,0,0,1,.556.217l.008.006.009,0a5.149,5.149,0,0,0,1.008.413l.027.008.027,0a4.249,4.249,0,0,0,1.8-.133,2.964,2.964,0,0,1,.789-.108h.084a3.666,3.666,0,0,1,1.427.617l.014.011.015.008.029.017c.236.14.481.285.692.383.309.192.6.335.874.474l.068.034.012.006.012,0c.384.161,10.179,3.7,10.853,4.055.261.084.531.177.857.261a13.437,13.437,0,0,0,2.03.224c.456.018.913.046,1.387.111a9.089,9.089,0,0,0,1.5.065,3.934,3.934,0,0,1,2.236.382,1.582,1.582,0,0,1,.475.4,2.543,2.543,0,0,0,1.155.792,3.264,3.264,0,0,0,1.341.168,3.293,3.293,0,0,1,.633,0,4.709,4.709,0,0,1,1.2.782,8.018,8.018,0,0,0,1.127.764l.4.224c.41.233.633.354.745.605-.219.19,3.561,1.343,4.339,1.576l.012,0,.012,0,.149.035c.346.081.7.164,1.129.239a10.248,10.248,0,0,1,3.82,1.157.984.984,0,0,1,.13.243l.006.017.008.017a2.818,2.818,0,0,0,1.329,1.329l.009,0,.009,0a4.876,4.876,0,0,0,1.559.364c.222.016.448.043.67.08h.006a2.035,2.035,0,0,1,1.439.954l.01.016.011.015A8.022,8.022,0,0,0,317.717,76a3.841,3.841,0,0,0,.871.67l.051.036a24.669,24.669,0,0,0,11.051,4.236c2.4.284,5.1.51,7.965.751,10.951.918,24.58,2.062,32.651,7.485l.038.025.042.016,1.336.5a17.192,17.192,0,0,1,3.875,2.2l0,0,0,0a24.634,24.634,0,0,0,3.17,1.95l.018.008.018.008a22.68,22.68,0,0,1,7.9,5.238l0,0,0,0a25.111,25.111,0,0,0,3.133,2.549l.375.286a6.348,6.348,0,0,1,1.747,2.415l.006.013.006.013.214.429.01.019.011.018a5.416,5.416,0,0,0,3.354,2.366,40.126,40.126,0,0,1,6.492,3.739,4.781,4.781,0,0,0,1.511,1.125l.025.012.027.008a6.335,6.335,0,0,0,1.866.28c.058,0,.115,0,.173,0h.657a9.374,9.374,0,0,0,3.146.185c.437-.034.881-.051,1.319-.051s.886.018,1.325.052c.508.042,1.027.064,1.539.064s1.02-.021,1.526-.063h.369l.041-.008a3.606,3.606,0,0,1,.752-.08,3.548,3.548,0,0,1,.688.067,2.051,2.051,0,0,1,.566.531l.008.011.009.011a5.413,5.413,0,0,0,.583.592l.006,0,.006,0a4.955,4.955,0,0,0,1.01.627l0,0,0,0a3.426,3.426,0,0,1,.559.309c.269.313.278.646.234,1.537a6.137,6.137,0,0,0,.161,2.254,3.58,3.58,0,0,0,1.132,1.84,2.71,2.71,0,0,1,.423.5,2.131,2.131,0,0,1-.013.766v.013a4.8,4.8,0,0,0-.052,1.1v1.932a1.273,1.273,0,0,0,.081.391l.008.021.01.02a2.446,2.446,0,0,0,1.5,1.223c1.573.652,2.112,3.731,2.29,4.746.022.126.039.225.055.3l.009.044.018.041a.54.54,0,0,1-.092.59l-.015.015-.013.018a3.4,3.4,0,0,0-.566,1.244,2.644,2.644,0,0,0,.374,2.166l0,0,0,0a1.074,1.074,0,0,1,.193.47,1.756,1.756,0,0,1-.173.487l0,.007,0,.008a16.248,16.248,0,0,0-.381,2.718c-.271,2.333-.679,5.849-1.078,7.4l-.489.943a75.906,75.906,0,0,0-3.865,9.049,12.131,12.131,0,0,1-.517,1.6,9.717,9.717,0,0,1-2.29,2.431l-.006,0-.006.006a19.288,19.288,0,0,0-1.541,1.407l0,0,0,0a7.248,7.248,0,0,0-1.374,2.118,10.78,10.78,0,0,1-.631,1.153,1.806,1.806,0,0,1-.739.441h-.006l-.006,0a3.338,3.338,0,0,0-1.329.854l-.013.014-.011.015a2.856,2.856,0,0,0-.6,2.042c.008.405.006.414-.255.562-.088.041-.3.13-.552.233-1.606.667-2.06.875-2.185,1.073a2.4,2.4,0,0,1-.189.149l-.007,0-.007.006-.384.3a3.2,3.2,0,0,0-1.177,1.589,4.071,4.071,0,0,1-.247.545,2,2,0,0,1-.908.772l-.022.01-.021.013-.158.091c-.158.09-.337.192-.543.332l-.02.013-.018.015a11.2,11.2,0,0,0-1.592,1.708c-.222.288-.431.541-.659.794l-.008.009-.008.01c-1.514,1.913-3.275,4.613-4.689,6.783-.839,1.287-1.563,2.4-1.945,2.887l0,0,0,0c-1.722,2.316-3.5,4.71-4.28,7.454-.048.159-.088.31-.122.444s-.065.252-.1.358l0,.009,0,.009-.006.02a2.845,2.845,0,0,1-.318.888,1.809,1.809,0,0,1-.773.463l0,0h0a9.256,9.256,0,0,0-1.167.623l-.008,0-.008.006a4.175,4.175,0,0,1-1.476.659c-.048,0-.1.006-.146.006a1.752,1.752,0,0,1-.658-.128,2.734,2.734,0,0,0-2.73.307l-.026.019L383,197.7a6.9,6.9,0,0,0-1.784,3.377,12.85,12.85,0,0,1-.488,1.33,1.042,1.042,0,0,0-.036.832v.44a4.532,4.532,0,0,1-.128,1.109v.007a2.242,2.242,0,0,1-.35.794l-.006.008-.006.008a5.445,5.445,0,0,0-.541,1.154l-.006.017,0,.018-.065.28v.011l-.006.026a1.381,1.381,0,0,0,.362,1.535,1.168,1.168,0,0,1,.243.306,6.689,6.689,0,0,1,.791,3.668v.013a12.531,12.531,0,0,1-.3,2.261,10.381,10.381,0,0,0-.289,3.489v.016c.038.294.095.625.163.96v.01a6.328,6.328,0,0,1,.158,1.141v1.009a33.46,33.46,0,0,0,.358,6.17l.064.516,0,.022,0,.022a4.286,4.286,0,0,1-.235,2.714l-.17.339a11.752,11.752,0,0,0-1.094,2.8l-.006.025,0,.025a19.034,19.034,0,0,0-.123,2.044v.021a8.018,8.018,0,0,1-.385,2.868c-.109.245-.211.44-.31.627a4.037,4.037,0,0,0-.6,2.125c-.052.389-.116.844-.2,1.3a11.483,11.483,0,0,0-.222,3.7,4.177,4.177,0,0,1-.515,1.969,11.646,11.646,0,0,0-1.5,1.62c-.121.133-.24.271-.356.4-.157.181-.306.352-.446.5a8.422,8.422,0,0,0-2.375,3.84.59.59,0,0,0-.268.426,4.063,4.063,0,0,0,.123,1.331,3.019,3.019,0,0,0,.321.918,2.52,2.52,0,0,1-.012.488v.01a3.975,3.975,0,0,1-.352,1.291,4.274,4.274,0,0,0-.276,3.272c.027.095.054.185.081.273a3.287,3.287,0,0,1,.165.752l.006.079.036.071a4.044,4.044,0,0,1,.165,3.3,17.3,17.3,0,0,1-2.8,4.318,18.056,18.056,0,0,0-3.275,5.311l-.008.022-.006.023a8.175,8.175,0,0,0-.245,1.439v.037a2.744,2.744,0,0,1-.482,1.6,1.2,1.2,0,0,1-.283.187h0a3.338,3.338,0,0,0-1.171.96l0,0,0,0c-.2.271-.365.519-.525.759l-.045.068,0,.008,0,.008a5.766,5.766,0,0,0-.376,1.216,33.257,33.257,0,0,1-2.138,6.166,21.048,21.048,0,0,1-5.733,7.484l-.015.013-.015.015a4.707,4.707,0,0,1-1.643,1.066,1.312,1.312,0,0,1-.4.034,2.474,2.474,0,0,0-1.834.653l-.027.024-.022.027a4.6,4.6,0,0,0-.682,1.2,3.911,3.911,0,0,1-.511.905l-.248.3a4.885,4.885,0,0,0-1.531,3.721,1.42,1.42,0,0,1-.018.384.769.769,0,0,1-.237.23l-.011.008-.01.009a5.2,5.2,0,0,1-3.18.665c-.651,0-1.261-.035-1.831-.072h-.06a6.987,6.987,0,0,0-2.667,1.261,51.5,51.5,0,0,1-10.8,5.058,68.968,68.968,0,0,1-21.62,3.165h-1.186a10.212,10.212,0,0,0-3.18.09l-.037.007-.036.014a3.2,3.2,0,0,0-1.56,1.337l0,.006,0,.006a1.591,1.591,0,0,1-.667.656,6.764,6.764,0,0,1-1.306.165c-.066,0-.133,0-.2,0a4.586,4.586,0,0,0-2.762.932l-.011.008-.011.01c-.3.267-.623.5-.932.725l-.244.178a15.962,15.962,0,0,0-2.222,1.777l-.557.509-.012.011-.011.012a7.157,7.157,0,0,1-1.961,1.494c-.313.161-.622.3-.963.444-.371.16-.707.306-1.049.473l-.013.006-.012.007-.154.09a5.311,5.311,0,0,0-1.833,1.265l-.021.022-.018.025a1.906,1.906,0,0,0-.331,1.059,4.2,4.2,0,0,1-1.561.738l-.024.006-.023.008-.022.008a4.458,4.458,0,0,0-2.825,2.063,2.267,2.267,0,0,0-.136,1.456.653.653,0,0,1,.008.117,34.935,34.935,0,0,1-3.457,2.837,3.781,3.781,0,0,1-.747.175c-.718.1-1.8.25-2.171,1.165a1.026,1.026,0,0,0,.508,1.342,2.118,2.118,0,0,1,.326.187,7.455,7.455,0,0,1-.905.937l-.034.032a9.043,9.043,0,0,0-1.424,3.63.67.67,0,0,0,.1.459c0,.072,0,.144-.006.215-.029.117-.156.461-.259.739a9.035,9.035,0,0,0-.39,1.177v.006a7.95,7.95,0,0,0,.267,3.671,10.735,10.735,0,0,1,.184,2.26,11.051,11.051,0,0,0,.31,3.027l0,.011,0,.01a4.568,4.568,0,0,0,.458,1.019,1.888,1.888,0,0,1,.233.6,8.359,8.359,0,0,1-.24,2.23l0,.018,0,.018c-.153,1.017-.228,2.014-.3,2.978l-.01.136-.046.4,0,.02v.02a17.808,17.808,0,0,0,.076,1.838v.015l0,.015a6.146,6.146,0,0,1-.22,3,3.811,3.811,0,0,1-.979.991l-.016.011-.015.013a9.034,9.034,0,0,0-.972.973l-.006.007-.006.007a8.047,8.047,0,0,1-1.413,1.413l0,0,0,0c-.719.6-1.451,1.141-2.008,1.547a31.613,31.613,0,0,0-3.591,2.969c-.264.245-.542.477-.826.693a17.137,17.137,0,0,0-1.793,2.051c-1.451,1.881-1.376,2.077-1.274,2.286a.175.175,0,0,0,.013.026,5.716,5.716,0,0,1-1.128,2.012l0,0,0,0a11.9,11.9,0,0,1-.9.959,8.512,8.512,0,0,0-1.613,1.9l-.013.021-.011.023a4.667,4.667,0,0,0-.416,2.1v.653a4.338,4.338,0,0,1-1.315,2.189l-.011.01-.011.011a11.224,11.224,0,0,0-1.154,1.431l-.323.44a10.307,10.307,0,0,0-1.657,2.739l0,.01,0,.01a5.275,5.275,0,0,0-.251,1.1v.01a2.723,2.723,0,0,1-.189.78,7.137,7.137,0,0,1-2.265,2.086l-.015.009-.014.01a17.557,17.557,0,0,0-2.448,2.087,8.383,8.383,0,0,1-3.364,2.011,13.816,13.816,0,0,0-6.712,5.014c-1.145,1.451-2.115,2.69-2.8,3.585-.735.953-1,1.309-1.1,1.484a2.506,2.506,0,0,1-.461.487l0,0,0,0a4.224,4.224,0,0,0-.84.974l0,0,0,.006a5.543,5.543,0,0,0-.752,3v.008a3.558,3.558,0,0,1-.419,1.889,5.305,5.305,0,0,1-2.768,1.974,11,11,0,0,1-3.477.527A8.773,8.773,0,0,1,222.289,419.751ZM409.477,171.188h-.387v0h.387Z" transform="translate(143 1014.872)" fill="#5c9fe4"/><path d="M7.355-5.146,7.346-9.12,5.4-5.846H4.706L2.766-9.034v3.889H1.328v-6.623H2.6L5.075-7.653l2.441-4.116H8.774l.019,6.623Zm2.9-5.09h1.476v5.09H10.26Zm.738-.71a.936.936,0,0,1-.662-.237.767.767,0,0,1-.255-.587.767.767,0,0,1,.255-.587A.936.936,0,0,1,11-12.592a.96.96,0,0,1,.662.227.728.728,0,0,1,.255.568.8.8,0,0,1-.255.61A.925.925,0,0,1,11-10.946Zm3.52,1.381a1.641,1.641,0,0,1,.714-.558,2.651,2.651,0,0,1,1.036-.189v1.363q-.246-.019-.331-.019a1.353,1.353,0,0,0-.993.355,1.434,1.434,0,0,0-.36,1.064v2.4H13.108v-5.09h1.41Zm2.63-.672h1.476v5.09H17.148Zm.738-.71a.936.936,0,0,1-.662-.237.767.767,0,0,1-.255-.587.767.767,0,0,1,.255-.587.936.936,0,0,1,.662-.237.96.96,0,0,1,.662.227.728.728,0,0,1,.255.568.8.8,0,0,1-.255.61A.925.925,0,0,1,17.886-10.946Zm5.393,5.554a1.517,1.517,0,0,1-.535.241,2.7,2.7,0,0,1-.667.08,1.982,1.982,0,0,1-1.405-.464,1.774,1.774,0,0,1-.5-1.363V-8.987h-.785v-1.135h.785v-1.24h1.476v1.24H22.92v1.135H21.652v2.072a.7.7,0,0,0,.166.5.614.614,0,0,0,.468.175.949.949,0,0,0,.6-.189Zm.833-4.844h1.476v5.09H24.112Zm.738-.71a.936.936,0,0,1-.662-.237.767.767,0,0,1-.255-.587.767.767,0,0,1,.255-.587.936.936,0,0,1,.662-.237.96.96,0,0,1,.662.227.728.728,0,0,1,.255.568.8.8,0,0,1-.255.61A.925.925,0,0,1,24.85-10.946Zm5.393,5.554a1.517,1.517,0,0,1-.535.241,2.7,2.7,0,0,1-.667.08,1.982,1.982,0,0,1-1.405-.464,1.774,1.774,0,0,1-.5-1.363V-8.987h-.785v-1.135h.785v-1.24h1.476v1.24h1.268v1.135H28.616v2.072a.7.7,0,0,0,.166.5.614.614,0,0,0,.468.175.949.949,0,0,0,.6-.189ZM36.2-10.236v5.09H34.8v-.606a1.958,1.958,0,0,1-.7.506,2.2,2.2,0,0,1-.88.175,2.168,2.168,0,0,1-1.59-.577,2.3,2.3,0,0,1-.587-1.713v-2.876h1.476v2.659q0,1.23,1.031,1.23a1.109,1.109,0,0,0,.852-.345,1.457,1.457,0,0,0,.322-1.027v-2.517Zm4.381-.076a2.594,2.594,0,0,1,1.292.326,2.344,2.344,0,0,1,.913.918,2.771,2.771,0,0,1,.331,1.377,2.771,2.771,0,0,1-.331,1.377,2.344,2.344,0,0,1-.913.918,2.594,2.594,0,0,1-1.292.326,1.958,1.958,0,0,1-1.6-.662v.587h-1.41v-7.021h1.476V-9.7A1.966,1.966,0,0,1,40.585-10.312ZM40.33-6.281a1.229,1.229,0,0,0,.932-.383,1.428,1.428,0,0,0,.364-1.027,1.428,1.428,0,0,0-.364-1.027A1.229,1.229,0,0,0,40.33-9.1a1.229,1.229,0,0,0-.932.383,1.428,1.428,0,0,0-.364,1.027A1.428,1.428,0,0,0,39.4-6.664,1.229,1.229,0,0,0,40.33-6.281Zm5.743-4.031a2.649,2.649,0,0,1,1.817.563,2.154,2.154,0,0,1,.634,1.7v2.9H47.142v-.634a1.645,1.645,0,0,1-1.552.71,2.408,2.408,0,0,1-1.017-.2,1.517,1.517,0,0,1-.658-.549,1.428,1.428,0,0,1-.227-.795,1.326,1.326,0,0,1,.535-1.116,2.724,2.724,0,0,1,1.651-.407h1.173a.941.941,0,0,0-.293-.743,1.292,1.292,0,0,0-.88-.26,2.569,2.569,0,0,0-.8.128,2.115,2.115,0,0,0-.667.345L43.878-9.7a3.2,3.2,0,0,1,1-.454A4.472,4.472,0,0,1,46.073-10.312ZM45.96-6.063a1.286,1.286,0,0,0,.672-.175.958.958,0,0,0,.416-.516v-.52H46.035q-.908,0-.908.6a.531.531,0,0,0,.222.449A1,1,0,0,0,45.96-6.063Z" transform="translate(348.778 1171.275)" fill="#fff"/><path d="M6.789-7.63a1.961,1.961,0,0,1,1,.675,1.86,1.86,0,0,1,.361,1.163,1.719,1.719,0,0,1-.76,1.5,3.884,3.884,0,0,1-2.215.526H1.328V-11.2H4.962a3.557,3.557,0,0,1,2.088.521,1.648,1.648,0,0,1,.728,1.413,1.814,1.814,0,0,1-.26.967A1.823,1.823,0,0,1,6.789-7.63ZM3.039-9.9v1.753H4.749a1.727,1.727,0,0,0,.967-.223.744.744,0,0,0,.329-.659.731.731,0,0,0-.329-.653A1.76,1.76,0,0,0,4.749-9.9ZM5.047-5.059a1.907,1.907,0,0,0,1.025-.223.764.764,0,0,0,.345-.691q0-.924-1.371-.924H3.039v1.838Zm6.6-4.5a2.975,2.975,0,0,1,2.04.632A2.419,2.419,0,0,1,14.4-7.025v3.262H12.845v-.712a1.847,1.847,0,0,1-1.742.8A2.7,2.7,0,0,1,9.96-3.9a1.7,1.7,0,0,1-.738-.616,1.6,1.6,0,0,1-.255-.892,1.489,1.489,0,0,1,.6-1.254,3.059,3.059,0,0,1,1.854-.457h1.317a1.056,1.056,0,0,0-.329-.834,1.451,1.451,0,0,0-.988-.292,2.885,2.885,0,0,0-.9.143,2.375,2.375,0,0,0-.749.388L9.18-8.873a3.59,3.59,0,0,1,1.121-.51A5.021,5.021,0,0,1,11.644-9.564Zm-.127,4.77a1.443,1.443,0,0,0,.754-.2,1.076,1.076,0,0,0,.467-.579v-.584H11.6q-1.02,0-1.02.669a.6.6,0,0,0,.25.5A1.125,1.125,0,0,0,11.517-4.793Zm5.96-3.931a1.843,1.843,0,0,1,.8-.627,2.977,2.977,0,0,1,1.163-.212v1.53q-.276-.021-.372-.021a1.519,1.519,0,0,0-1.116.4,1.61,1.61,0,0,0-.4,1.2v2.7H15.894V-9.479h1.583ZM23.14-3.678A3.514,3.514,0,0,1,21.5-4.055,2.824,2.824,0,0,1,20.362-5.1a2.855,2.855,0,0,1-.409-1.519,2.855,2.855,0,0,1,.409-1.519A2.824,2.824,0,0,1,21.5-9.187a3.514,3.514,0,0,1,1.641-.377,3.18,3.18,0,0,1,1.578.377A2.237,2.237,0,0,1,25.7-8.108l-1.286.691A1.405,1.405,0,0,0,23.13-8.2a1.455,1.455,0,0,0-1.073.425,1.565,1.565,0,0,0-.425,1.158,1.565,1.565,0,0,0,.425,1.158,1.455,1.455,0,0,0,1.073.425,1.391,1.391,0,0,0,1.286-.786l1.286.7a2.282,2.282,0,0,1-.983,1.062A3.145,3.145,0,0,1,23.14-3.678Zm5.822-5.886A2.975,2.975,0,0,1,31-8.932a2.419,2.419,0,0,1,.712,1.907v3.262H30.163v-.712a1.847,1.847,0,0,1-1.742.8A2.7,2.7,0,0,1,27.278-3.9a1.7,1.7,0,0,1-.738-.616,1.6,1.6,0,0,1-.255-.892,1.489,1.489,0,0,1,.6-1.254,3.059,3.059,0,0,1,1.854-.457h1.317a1.056,1.056,0,0,0-.329-.834,1.451,1.451,0,0,0-.988-.292,2.885,2.885,0,0,0-.9.143,2.375,2.375,0,0,0-.749.388L26.5-8.873a3.59,3.59,0,0,1,1.121-.51A5.021,5.021,0,0,1,28.962-9.564Zm-.127,4.77a1.443,1.443,0,0,0,.754-.2,1.076,1.076,0,0,0,.467-.579v-.584H28.92q-1.02,0-1.02.669a.6.6,0,0,0,.25.5A1.125,1.125,0,0,0,28.835-4.793ZM34.8-8.724a1.843,1.843,0,0,1,.8-.627,2.977,2.977,0,0,1,1.163-.212v1.53q-.276-.021-.372-.021a1.519,1.519,0,0,0-1.116.4,1.61,1.61,0,0,0-.4,1.2v2.7H33.212V-9.479H34.8Zm8.5,2.125q0,.032-.032.446H38.939a1.347,1.347,0,0,0,.552.839,1.83,1.83,0,0,0,1.084.308,2.194,2.194,0,0,0,.792-.133,1.917,1.917,0,0,0,.643-.42l.882.956a2.964,2.964,0,0,1-2.359.924,3.731,3.731,0,0,1-1.711-.377A2.765,2.765,0,0,1,37.675-5.1a2.884,2.884,0,0,1-.4-1.519,2.921,2.921,0,0,1,.4-1.514,2.791,2.791,0,0,1,1.094-1.052,3.213,3.213,0,0,1,1.556-.377,3.187,3.187,0,0,1,1.519.361,2.637,2.637,0,0,1,1.068,1.036A3.089,3.089,0,0,1,43.295-6.6ZM40.331-8.31a1.427,1.427,0,0,0-.946.319,1.357,1.357,0,0,0-.467.871h2.815a1.37,1.37,0,0,0-.467-.866A1.4,1.4,0,0,0,40.331-8.31Zm7.543-1.254a2.352,2.352,0,0,1,1.716.637,2.528,2.528,0,0,1,.653,1.891v3.272H48.586V-6.78a1.49,1.49,0,0,0-.3-1.015,1.091,1.091,0,0,0-.861-.335,1.319,1.319,0,0,0-1,.388,1.606,1.606,0,0,0-.372,1.153v2.826H44.4V-9.479h1.583v.669a2.2,2.2,0,0,1,.818-.558A2.85,2.85,0,0,1,47.874-9.564Zm6.173,0a2.975,2.975,0,0,1,2.04.632A2.419,2.419,0,0,1,56.8-7.025v3.262H55.248v-.712a1.847,1.847,0,0,1-1.742.8A2.7,2.7,0,0,1,52.363-3.9a1.7,1.7,0,0,1-.738-.616,1.6,1.6,0,0,1-.255-.892,1.489,1.489,0,0,1,.6-1.254,3.059,3.059,0,0,1,1.854-.457h1.317a1.056,1.056,0,0,0-.329-.834,1.451,1.451,0,0,0-.988-.292,2.885,2.885,0,0,0-.9.143,2.375,2.375,0,0,0-.749.388l-.595-1.158a3.59,3.59,0,0,1,1.121-.51A5.021,5.021,0,0,1,54.047-9.564Zm-.127,4.77a1.443,1.443,0,0,0,.754-.2,1.076,1.076,0,0,0,.467-.579v-.584H54q-1.02,0-1.02.669a.6.6,0,0,0,.25.5A1.125,1.125,0,0,0,53.919-4.793Z" transform="translate(396.18 1106.571)" fill="#fff"/><g transform="translate(361.741 1114.622)"><g transform="translate(11737 -327)" fill="url(#a)"><path d="M -11724.6923828125 360.9316101074219 C -11725.033203125 360.9316101074219 -11725.3603515625 360.7828674316406 -11725.587890625 360.5234985351563 L -11725.58984375 360.521484375 L -11725.5908203125 360.5194396972656 C -11727.3369140625 358.48779296875 -11733.2744140625 351.3311462402344 -11736.3779296875 344.5404052734375 C -11737.1220703125 342.9106140136719 -11737.5 341.1500854492188 -11737.5 339.3077392578125 C -11737.5 332.2453918457031 -11731.7548828125 326.499755859375 -11724.6923828125 326.499755859375 C -11717.6318359375 326.499755859375 -11711.8857421875 332.2453308105469 -11711.8837890625 339.3075866699219 C -11711.8837890625 341.1488342285156 -11712.2607421875 342.9092712402344 -11713.0048828125 344.5401306152344 C -11716.1123046875 351.3360900878906 -11722.048828125 358.4890747070313 -11723.7939453125 360.5195007324219 C -11724.0205078125 360.7818603515625 -11724.34765625 360.9316101074219 -11724.6923828125 360.9316101074219 Z" stroke="none"/><path d="M -11724.6923828125 360.4316101074219 C -11724.4931640625 360.4316101074219 -11724.3037109375 360.3448181152344 -11724.1728515625 360.1935729980469 C -11722.4384765625 358.1758117675781 -11716.5400390625 351.0686645507813 -11713.4599609375 344.3326110839844 C -11712.74609375 342.7678527832031 -11712.3837890625 341.0772399902344 -11712.3837890625 339.3077392578125 C -11712.3857421875 332.5210876464844 -11717.9072265625 326.999755859375 -11724.6923828125 326.999755859375 C -11731.478515625 326.999755859375 -11737 332.5210876464844 -11737 339.3077392578125 C -11737 341.0776977539063 -11736.6376953125 342.7682495117188 -11735.9228515625 344.3326110839844 C -11732.845703125 351.066650390625 -11726.9462890625 358.17529296875 -11725.2119140625 360.1935729980469 C -11725.0791015625 360.3448181152344 -11724.8896484375 360.4316101074219 -11724.6923828125 360.4316101074219 M -11724.6923828125 361.4316101074219 C -11725.177734375 361.4316101074219 -11725.640625 361.2208557128906 -11725.962890625 360.8534240722656 L -11725.966796875 360.8493957519531 L -11725.970703125 360.8453369140625 C -11727.7275390625 358.8010559082031 -11733.7021484375 351.5986938476563 -11736.83203125 344.7482299804688 C -11737.607421875 343.052734375 -11738 341.2222900390625 -11738 339.3077392578125 C -11738 331.9696960449219 -11732.0302734375 325.999755859375 -11724.6923828125 325.999755859375 C -11717.3564453125 325.999755859375 -11711.3857421875 331.9695739746094 -11711.3837890625 339.3074340820313 C -11711.3837890625 341.220947265625 -11711.7763671875 343.0511779785156 -11712.5498046875 344.7476806640625 C -11715.685546875 351.6037292480469 -11721.658203125 358.8023986816406 -11723.4140625 360.8454284667969 C -11723.7373046875 361.2188415527344 -11724.2021484375 361.4316101074219 -11724.6923828125 361.4316101074219 Z" stroke="none" fill="#fff"/></g><path d="M-11718.047,339.629a23.1,23.1,0,0,0-6.923,5.87l1.742,3a23.608,23.608,0,0,1,5.282-4.934,22.6,22.6,0,0,1,6.62-3.083,22.867,22.867,0,0,0-6.275-.849h-.446Zm-1.458-2.835a22.8,22.8,0,0,0-9.312,1.984l3.726,6.438a22.52,22.52,0,0,1,5.016-4.717,23.038,23.038,0,0,1,6.2-3.017A23.718,23.718,0,0,0-11719.5,336.794Z" transform="translate(11732.228 -329.508)" fill="#f9faff"/></g><g transform="translate(412.646 1053.268)"><g transform="translate(11737 -327)" fill="url(#b)"><path d="M -11724.6923828125 360.9316101074219 C -11725.033203125 360.9316101074219 -11725.3603515625 360.7828674316406 -11725.587890625 360.5234985351563 L -11725.58984375 360.521484375 L -11725.5908203125 360.5194396972656 C -11727.3369140625 358.48779296875 -11733.2744140625 351.3311462402344 -11736.3779296875 344.5404052734375 C -11737.1220703125 342.9106140136719 -11737.5 341.1500854492188 -11737.5 339.3077392578125 C -11737.5 332.2453918457031 -11731.7548828125 326.499755859375 -11724.6923828125 326.499755859375 C -11717.6318359375 326.499755859375 -11711.8857421875 332.2453308105469 -11711.8837890625 339.3075866699219 C -11711.8837890625 341.1488342285156 -11712.2607421875 342.9092712402344 -11713.0048828125 344.5401306152344 C -11716.1123046875 351.3360900878906 -11722.048828125 358.4890747070313 -11723.7939453125 360.5195007324219 C -11724.0205078125 360.7818603515625 -11724.34765625 360.9316101074219 -11724.6923828125 360.9316101074219 Z" stroke="none"/><path d="M -11724.6923828125 360.4316101074219 C -11724.4931640625 360.4316101074219 -11724.3037109375 360.3448181152344 -11724.1728515625 360.1935729980469 C -11722.4384765625 358.1758117675781 -11716.5400390625 351.0686645507813 -11713.4599609375 344.3326110839844 C -11712.74609375 342.7678527832031 -11712.3837890625 341.0772399902344 -11712.3837890625 339.3077392578125 C -11712.3857421875 332.5210876464844 -11717.9072265625 326.999755859375 -11724.6923828125 326.999755859375 C -11731.478515625 326.999755859375 -11737 332.5210876464844 -11737 339.3077392578125 C -11737 341.0776977539063 -11736.6376953125 342.7682495117188 -11735.9228515625 344.3326110839844 C -11732.845703125 351.066650390625 -11726.9462890625 358.17529296875 -11725.2119140625 360.1935729980469 C -11725.0791015625 360.3448181152344 -11724.8896484375 360.4316101074219 -11724.6923828125 360.4316101074219 M -11724.6923828125 361.4316101074219 C -11725.177734375 361.4316101074219 -11725.640625 361.2208557128906 -11725.962890625 360.8534240722656 L -11725.966796875 360.8493957519531 L -11725.970703125 360.8453369140625 C -11727.7275390625 358.8010559082031 -11733.7021484375 351.5986938476563 -11736.83203125 344.7482299804688 C -11737.607421875 343.052734375 -11738 341.2222900390625 -11738 339.3077392578125 C -11738 331.9696960449219 -11732.0302734375 325.999755859375 -11724.6923828125 325.999755859375 C -11717.3564453125 325.999755859375 -11711.3857421875 331.9695739746094 -11711.3837890625 339.3074340820313 C -11711.3837890625 341.220947265625 -11711.7763671875 343.0511779785156 -11712.5498046875 344.7476806640625 C -11715.685546875 351.6037292480469 -11721.658203125 358.8023986816406 -11723.4140625 360.8454284667969 C -11723.7373046875 361.2188415527344 -11724.2021484375 361.4316101074219 -11724.6923828125 361.4316101074219 Z" stroke="none" fill="#fff"/></g><path d="M-11718.047,339.629a23.1,23.1,0,0,0-6.923,5.87l1.742,3a23.608,23.608,0,0,1,5.282-4.934,22.6,22.6,0,0,1,6.62-3.083,22.867,22.867,0,0,0-6.275-.849h-.446Zm-1.458-2.835a22.8,22.8,0,0,0-9.312,1.984l3.726,6.438a22.52,22.52,0,0,1,5.016-4.717,23.038,23.038,0,0,1,6.2-3.017A23.718,23.718,0,0,0-11719.5,336.794Z" transform="translate(11732.228 -329.508)" fill="#f9faff"/></g><g transform="translate(321 1188.268)"><g transform="translate(11737 -327)" fill="url(#b)"><path d="M -11724.6923828125 360.9316101074219 C -11725.033203125 360.9316101074219 -11725.3603515625 360.7828674316406 -11725.587890625 360.5234985351563 L -11725.58984375 360.521484375 L -11725.5908203125 360.5194396972656 C -11727.3369140625 358.48779296875 -11733.2744140625 351.3311462402344 -11736.3779296875 344.5404052734375 C -11737.1220703125 342.9106140136719 -11737.5 341.1500854492188 -11737.5 339.3077392578125 C -11737.5 332.2453918457031 -11731.7548828125 326.499755859375 -11724.6923828125 326.499755859375 C -11717.6318359375 326.499755859375 -11711.8857421875 332.2453308105469 -11711.8837890625 339.3075866699219 C -11711.8837890625 341.1488342285156 -11712.2607421875 342.9092712402344 -11713.0048828125 344.5401306152344 C -11716.1123046875 351.3360900878906 -11722.048828125 358.4890747070313 -11723.7939453125 360.5195007324219 C -11724.0205078125 360.7818603515625 -11724.34765625 360.9316101074219 -11724.6923828125 360.9316101074219 Z" stroke="none"/><path d="M -11724.6923828125 360.4316101074219 C -11724.4931640625 360.4316101074219 -11724.3037109375 360.3448181152344 -11724.1728515625 360.1935729980469 C -11722.4384765625 358.1758117675781 -11716.5400390625 351.0686645507813 -11713.4599609375 344.3326110839844 C -11712.74609375 342.7678527832031 -11712.3837890625 341.0772399902344 -11712.3837890625 339.3077392578125 C -11712.3857421875 332.5210876464844 -11717.9072265625 326.999755859375 -11724.6923828125 326.999755859375 C -11731.478515625 326.999755859375 -11737 332.5210876464844 -11737 339.3077392578125 C -11737 341.0776977539063 -11736.6376953125 342.7682495117188 -11735.9228515625 344.3326110839844 C -11732.845703125 351.066650390625 -11726.9462890625 358.17529296875 -11725.2119140625 360.1935729980469 C -11725.0791015625 360.3448181152344 -11724.8896484375 360.4316101074219 -11724.6923828125 360.4316101074219 M -11724.6923828125 361.4316101074219 C -11725.177734375 361.4316101074219 -11725.640625 361.2208557128906 -11725.962890625 360.8534240722656 L -11725.966796875 360.8493957519531 L -11725.970703125 360.8453369140625 C -11727.7275390625 358.8010559082031 -11733.7021484375 351.5986938476563 -11736.83203125 344.7482299804688 C -11737.607421875 343.052734375 -11738 341.2222900390625 -11738 339.3077392578125 C -11738 331.9696960449219 -11732.0302734375 325.999755859375 -11724.6923828125 325.999755859375 C -11717.3564453125 325.999755859375 -11711.3857421875 331.9695739746094 -11711.3837890625 339.3074340820313 C -11711.3837890625 341.220947265625 -11711.7763671875 343.0511779785156 -11712.5498046875 344.7476806640625 C -11715.685546875 351.6037292480469 -11721.658203125 358.8023986816406 -11723.4140625 360.8454284667969 C -11723.7373046875 361.2188415527344 -11724.2021484375 361.4316101074219 -11724.6923828125 361.4316101074219 Z" stroke="none" fill="#fff"/></g><path d="M-11718.047,339.629a23.1,23.1,0,0,0-6.923,5.87l1.742,3a23.608,23.608,0,0,1,5.282-4.934,22.6,22.6,0,0,1,6.62-3.083,22.867,22.867,0,0,0-6.275-.849h-.446Zm-1.458-2.835a22.8,22.8,0,0,0-9.312,1.984l3.726,6.438a22.52,22.52,0,0,1,5.016-4.717,23.038,23.038,0,0,1,6.2-3.017A23.718,23.718,0,0,0-11719.5,336.794Z" transform="translate(11732.228 -329.508)" fill="#f9faff"/></g><path d="M7.2,0,7.19-4.2,5.13-.74H4.4L2.35-4.11V0H.83V-7H2.17L4.79-2.65,7.37-7H8.7l.02,7Zm5.24-5.46a2.8,2.8,0,0,1,1.92.595,2.277,2.277,0,0,1,.67,1.8V0H13.57V-.67a1.738,1.738,0,0,1-1.64.75,2.545,2.545,0,0,1-1.075-.21,1.6,1.6,0,0,1-.7-.58,1.51,1.51,0,0,1-.24-.84,1.4,1.4,0,0,1,.565-1.18,2.879,2.879,0,0,1,1.745-.43h1.24a.994.994,0,0,0-.31-.785,1.365,1.365,0,0,0-.93-.275,2.715,2.715,0,0,0-.845.135,2.236,2.236,0,0,0-.7.365l-.56-1.09a3.379,3.379,0,0,1,1.055-.48A4.726,4.726,0,0,1,12.44-5.46ZM12.32-.97a1.359,1.359,0,0,0,.71-.185,1.012,1.012,0,0,0,.44-.545v-.55H12.4q-.96,0-.96.63a.561.561,0,0,0,.235.475A1.059,1.059,0,0,0,12.32-.97Zm7.59.71a1.6,1.6,0,0,1-.565.255,2.857,2.857,0,0,1-.7.085,2.094,2.094,0,0,1-1.485-.49,1.875,1.875,0,0,1-.525-1.44V-4.06H15.8v-1.2h.83V-6.57h1.56v1.31h1.34v1.2H18.19v2.19a.734.734,0,0,0,.175.525.649.649,0,0,0,.5.185,1,1,0,0,0,.63-.2Zm3.27.34a3.226,3.226,0,0,1-1.525-.355A2.639,2.639,0,0,1,20.6-1.26a2.714,2.714,0,0,1-.38-1.43,2.714,2.714,0,0,1,.38-1.43,2.639,2.639,0,0,1,1.055-.985A3.226,3.226,0,0,1,23.18-5.46a3.2,3.2,0,0,1,1.52.355,2.647,2.647,0,0,1,1.05.985,2.714,2.714,0,0,1,.38,1.43,2.714,2.714,0,0,1-.38,1.43,2.647,2.647,0,0,1-1.05.985A3.2,3.2,0,0,1,23.18.08Zm0-1.28a1.3,1.3,0,0,0,.985-.4A1.51,1.51,0,0,0,24.55-2.69a1.51,1.51,0,0,0-.385-1.085,1.3,1.3,0,0,0-.985-.4,1.315,1.315,0,0,0-.99.4A1.5,1.5,0,0,0,21.8-2.69a1.5,1.5,0,0,0,.39,1.085A1.315,1.315,0,0,0,23.18-1.2ZM35.55-5.38V-.9a2.875,2.875,0,0,1-.77,2.2,3.179,3.179,0,0,1-2.25.72,5.627,5.627,0,0,1-1.48-.19,3.236,3.236,0,0,1-1.16-.55L30.51.16a2.552,2.552,0,0,0,.86.445A3.422,3.422,0,0,0,32.41.77,1.687,1.687,0,0,0,33.6.405,1.455,1.455,0,0,0,33.99-.7V-.93a2.183,2.183,0,0,1-1.7.67,2.855,2.855,0,0,1-1.355-.325A2.477,2.477,0,0,1,29.96-1.5a2.558,2.558,0,0,1-.36-1.36,2.558,2.558,0,0,1,.36-1.36,2.477,2.477,0,0,1,.975-.915A2.855,2.855,0,0,1,32.29-5.46a2.135,2.135,0,0,1,1.78.77v-.69ZM32.6-1.54a1.437,1.437,0,0,0,1.015-.365,1.24,1.24,0,0,0,.4-.955,1.24,1.24,0,0,0-.4-.955A1.437,1.437,0,0,0,32.6-4.18a1.455,1.455,0,0,0-1.02.365,1.232,1.232,0,0,0-.4.955,1.232,1.232,0,0,0,.4.955A1.455,1.455,0,0,0,32.6-1.54Zm5.89-3.13a1.735,1.735,0,0,1,.755-.59,2.8,2.8,0,0,1,1.1-.2v1.44q-.26-.02-.35-.02a1.43,1.43,0,0,0-1.05.375,1.516,1.516,0,0,0-.38,1.125V0H37V-5.38h1.49ZM43.78.08a3.226,3.226,0,0,1-1.525-.355A2.639,2.639,0,0,1,41.2-1.26a2.714,2.714,0,0,1-.38-1.43,2.714,2.714,0,0,1,.38-1.43,2.639,2.639,0,0,1,1.055-.985A3.226,3.226,0,0,1,43.78-5.46a3.2,3.2,0,0,1,1.52.355,2.647,2.647,0,0,1,1.05.985,2.714,2.714,0,0,1,.38,1.43,2.714,2.714,0,0,1-.38,1.43,2.647,2.647,0,0,1-1.05.985A3.2,3.2,0,0,1,43.78.08Zm0-1.28a1.3,1.3,0,0,0,.985-.4A1.51,1.51,0,0,0,45.15-2.69a1.51,1.51,0,0,0-.385-1.085,1.3,1.3,0,0,0-.985-.4,1.315,1.315,0,0,0-.99.4A1.5,1.5,0,0,0,42.4-2.69a1.5,1.5,0,0,0,.39,1.085A1.315,1.315,0,0,0,43.78-1.2ZM49.58.08a5.226,5.226,0,0,1-1.31-.165A3.423,3.423,0,0,1,47.25-.5l.52-1.12a3.273,3.273,0,0,0,.87.375,3.646,3.646,0,0,0,1,.145q.99,0,.99-.49a.347.347,0,0,0-.27-.33,4,4,0,0,0-.83-.17,8.007,8.007,0,0,1-1.09-.23,1.691,1.691,0,0,1-.745-.46,1.308,1.308,0,0,1-.315-.94,1.472,1.472,0,0,1,.295-.905,1.9,1.9,0,0,1,.86-.615,3.673,3.673,0,0,1,1.335-.22A5.239,5.239,0,0,1,51-5.335a3.173,3.173,0,0,1,.935.345l-.52,1.11a3.1,3.1,0,0,0-1.55-.4,1.577,1.577,0,0,0-.75.14.412.412,0,0,0-.25.36.357.357,0,0,0,.27.35,4.78,4.78,0,0,0,.86.19,9.206,9.206,0,0,1,1.08.235,1.622,1.622,0,0,1,.73.455,1.291,1.291,0,0,1,.31.92,1.421,1.421,0,0,1-.3.89,1.915,1.915,0,0,1-.875.605A3.9,3.9,0,0,1,49.58.08Zm5.31,0a5.226,5.226,0,0,1-1.31-.165A3.423,3.423,0,0,1,52.56-.5l.52-1.12a3.273,3.273,0,0,0,.87.375,3.646,3.646,0,0,0,1,.145q.99,0,.99-.49a.347.347,0,0,0-.27-.33,4,4,0,0,0-.83-.17,8.007,8.007,0,0,1-1.09-.23,1.691,1.691,0,0,1-.745-.46,1.308,1.308,0,0,1-.315-.94,1.472,1.472,0,0,1,.295-.905,1.9,1.9,0,0,1,.86-.615,3.673,3.673,0,0,1,1.335-.22,5.239,5.239,0,0,1,1.135.125,3.173,3.173,0,0,1,.935.345l-.52,1.11a3.1,3.1,0,0,0-1.55-.4,1.577,1.577,0,0,0-.75.14.412.412,0,0,0-.25.36.357.357,0,0,0,.27.35,4.78,4.78,0,0,0,.86.19,9.206,9.206,0,0,1,1.08.235,1.622,1.622,0,0,1,.73.455,1.291,1.291,0,0,1,.31.92,1.421,1.421,0,0,1-.3.89,1.915,1.915,0,0,1-.875.605A3.9,3.9,0,0,1,54.89.08Zm6.06,0a3.226,3.226,0,0,1-1.525-.355A2.639,2.639,0,0,1,58.37-1.26a2.714,2.714,0,0,1-.38-1.43,2.714,2.714,0,0,1,.38-1.43,2.639,2.639,0,0,1,1.055-.985A3.226,3.226,0,0,1,60.95-5.46a3.2,3.2,0,0,1,1.52.355,2.647,2.647,0,0,1,1.05.985,2.714,2.714,0,0,1,.38,1.43,2.714,2.714,0,0,1-.38,1.43,2.647,2.647,0,0,1-1.05.985A3.2,3.2,0,0,1,60.95.08Zm0-1.28a1.3,1.3,0,0,0,.985-.4A1.51,1.51,0,0,0,62.32-2.69a1.51,1.51,0,0,0-.385-1.085,1.3,1.3,0,0,0-.985-.4,1.315,1.315,0,0,0-.99.4,1.5,1.5,0,0,0-.39,1.085,1.5,1.5,0,0,0,.39,1.085A1.315,1.315,0,0,0,60.95-1.2Z" transform="translate(301.17 1237)" fill="#fff"/></g></svg>