<svg xmlns="http://www.w3.org/2000/svg" width="540" height="510" viewBox="0 0 540 510"><g transform="translate(-110 -2040)"><rect width="540" height="510" transform="translate(110 2040)" fill="#e5e5e5"/><path d="M14.017,136.722A14.4,14.4,0,0,1,.005,121.95V44.47c0-8.335,6.251-15.723,14.587-15.723h5.873l1.894-15.534a14.4,14.4,0,0,1,5.494-9.85A14.206,14.206,0,0,1,39.03.142L142.462,11.887a15.345,15.345,0,0,1,13.45,16.86L147.2,105.658a15.724,15.724,0,0,1-5.494,10.23,18.941,18.941,0,0,1-7.2,3.031v3.031c0,8.335-7.578,14.776-15.913,14.776H14.4Q14.209,136.727,14.017,136.722ZM36.946,86.336l-29.363,21.6V121.95q-.017.291-.008.582a6.82,6.82,0,0,0,7.017,6.617h104c4.168,0,8.335-3.031,8.335-7.2h0V85.2l-37.319,21.6a17.238,17.238,0,0,1-9.093,2.463A17.807,17.807,0,0,1,69.34,105.09L48.691,86.9a9.093,9.093,0,0,0-11.745-.568ZM32.589,9.045a8.716,8.716,0,0,0-2.842,4.925l-1.7,14.776h90.551A16.292,16.292,0,0,1,134.506,44.47v66.871c0-.379,1.7-.758,2.463-1.516a6.44,6.44,0,0,0,2.463-5.115l8.9-76.912c0-.025,0-.051.008-.075a7.578,7.578,0,0,0-6.827-8.26L38.272,7.53q-.365-.031-.728-.03A8.714,8.714,0,0,0,32.589,9.045ZM53.616,81.031,74.454,99.407a9.661,9.661,0,0,0,11.177.947l41.3-24.058V44.47a8.715,8.715,0,0,0-8.335-8.146h-104c-4.168,0-7.009,3.978-7.009,8.146V98.459L32.588,80.274a16.86,16.86,0,0,1,21.028.758Zm9.472-16.86A15.913,15.913,0,1,1,79,80.085,15.913,15.913,0,0,1,63.088,64.172Zm7.578,0A8.335,8.335,0,1,0,79,55.836,8.336,8.336,0,0,0,70.665,64.171Z" transform="translate(302 2227)" fill="#a6a6a6"/></g></svg>