<svg xmlns="http://www.w3.org/2000/svg" width="109.966" height="14.104" viewBox="0 0 109.966 14.104"><g transform="translate(-1333 -2488.345)"><g transform="translate(1383 2488.345)"><path d="M13.97,7.035A6.985,6.985,0,1,1,7,0,7.006,7.006,0,0,1,13.97,7.035Z" fill="#fff" fill-rule="evenodd"/><ellipse cx="5.327" cy="5.36" rx="5.327" ry="5.36" transform="translate(1.675 1.709)" fill="#f7d622" stroke="#000" stroke-width="0.5"/><path d="M16.684,10.6H13.2a2,2,0,0,1,.57,1.441,2.145,2.145,0,0,1-.57,1.441h3.484a1.451,1.451,0,0,0,1.441-1.441A1.43,1.43,0,0,0,16.684,10.6Z" transform="translate(-8.778 -7.049)" fill-rule="evenodd"/><path d="M17.287,22.8H13.2a2,2,0,0,1,.57,1.441,2.145,2.145,0,0,1-.57,1.441h4.087a1.441,1.441,0,0,0,0-2.881Z" transform="translate(-8.778 -15.162)" fill-rule="evenodd"/><path d="M60.925,3.92A5.059,5.059,0,1,1,55.9,8.978V0h0a1.845,1.845,0,0,1,1.843,1.876V5.059A5.057,5.057,0,0,1,60.925,3.92Zm0,1.876a3.183,3.183,0,1,0,3.183,3.183A3.2,3.2,0,0,0,60.925,5.8Z" transform="translate(-37.173)" fill-rule="evenodd"/><path d="M110.924,11.7a5.047,5.047,0,0,1,5.025,5.059,4.238,4.238,0,0,1-.1.938h-7.973a3.177,3.177,0,0,0,3.049,2.245,3.219,3.219,0,0,0,2.412-1.106h2.178a5.037,5.037,0,1,1-4.59-7.136Zm3.015,4.154a3.17,3.17,0,0,0-6.064,0Z" transform="translate(-70.422 -7.78)" fill-rule="evenodd"/><path d="M144.225,3.92a5.059,5.059,0,1,0,5.025,5.059V0h0a1.845,1.845,0,0,0-1.843,1.876V5.059A5.057,5.057,0,0,0,144.225,3.92Zm0,1.876a3.183,3.183,0,1,1-3.183,3.183A3.2,3.2,0,0,1,144.225,5.8Z" transform="translate(-92.567)" fill-rule="evenodd"/><path d="M89.2,16.859A5.026,5.026,0,0,1,94.225,11.8v1.876a3.2,3.2,0,0,0-3.183,3.183v3.183A1.866,1.866,0,0,1,89.2,21.917h0Z" transform="translate(-59.318 -7.847)" fill-rule="evenodd"/><path d="M173.4,12.3h1.876v8.107a1.873,1.873,0,0,1-1.876,1.876h0Z" transform="translate(-115.31 -8.179)" fill-rule="evenodd"/><path d="M174.338,0a.959.959,0,0,1,.938.938.938.938,0,1,1-1.876,0A.959.959,0,0,1,174.338,0Z" transform="translate(-115.31)" fill-rule="evenodd"/></g><path d="M5.394-4.608H1.734v3.53H1.119V-8.6h4.8v.527H1.734v2.941H5.394ZM9.043-.969A2.244,2.244,0,0,1,7.3-1.744a2.831,2.831,0,0,1-.7-1.964v-.284a2.917,2.917,0,0,1,.69-1.99,2.141,2.141,0,0,1,1.672-.791,2.072,2.072,0,0,1,1.618.651,2.49,2.49,0,0,1,.589,1.737v.527H7.223v.15a2.466,2.466,0,0,0,.5,1.578A1.6,1.6,0,0,0,9.043-1.5a2.706,2.706,0,0,0,.987-.16,1.942,1.942,0,0,0,.7-.46l.264.424a2.244,2.244,0,0,1-.8.528A3.057,3.057,0,0,1,9.043-.969ZM8.965-6.246a1.481,1.481,0,0,0-1.153.523A2.247,2.247,0,0,0,7.27-4.411l.01.026h3.277V-4.54a1.78,1.78,0,0,0-.429-1.216A1.467,1.467,0,0,0,8.965-6.246ZM13.09-1.077h-.615V-6.67h.615Zm0-7.195h-.615v-.868h.615Zm2.683.171V-6.67H17v.507h-1.23V-2.52a1.192,1.192,0,0,0,.2.778.666.666,0,0,0,.53.23q.15,0,.292-.013t.328-.044l.093.46a1.6,1.6,0,0,1-.377.1,2.762,2.762,0,0,1-.445.036,1.159,1.159,0,0,1-.917-.372,1.754,1.754,0,0,1-.328-1.178V-6.163H14.18V-6.67h.967V-8.1Zm2.093,4.145a3.005,3.005,0,0,1,.677-2.026,2.244,2.244,0,0,1,1.794-.791,2.25,2.25,0,0,1,1.8.791,3.005,3.005,0,0,1,.677,2.026v.171a3.01,3.01,0,0,1-.675,2.029,2.24,2.24,0,0,1-1.791.788,2.259,2.259,0,0,1-1.8-.788,3,3,0,0,1-.677-2.029Zm.62.168a2.659,2.659,0,0,0,.491,1.632,1.609,1.609,0,0,0,1.37.661A1.6,1.6,0,0,0,21.7-2.157,2.65,2.65,0,0,0,22.2-3.789v-.17a2.637,2.637,0,0,0-.5-1.621,1.608,1.608,0,0,0-1.365-.666,1.6,1.6,0,0,0-1.359.666,2.656,2.656,0,0,0-.491,1.621Zm12.694.07a3.226,3.226,0,0,1-.569,2,1.86,1.86,0,0,1-1.566.747,2.267,2.267,0,0,1-1.031-.222,1.871,1.871,0,0,1-.721-.636v2.9h-.62V-6.67H27.2l.078.868a1.987,1.987,0,0,1,.721-.718,2.059,2.059,0,0,1,1.041-.253,1.824,1.824,0,0,1,1.576.8,3.639,3.639,0,0,1,.569,2.142Zm-.62-.116a3.215,3.215,0,0,0-.424-1.739,1.376,1.376,0,0,0-1.24-.673,1.63,1.63,0,0,0-1.016.3,1.829,1.829,0,0,0-.587.774v2.691a1.694,1.694,0,0,0,.612.724,1.781,1.781,0,0,0,1,.264,1.4,1.4,0,0,0,1.233-.611,2.8,2.8,0,0,0,.421-1.62Zm1.664-.121A3.005,3.005,0,0,1,32.9-5.983a2.244,2.244,0,0,1,1.794-.791,2.25,2.25,0,0,1,1.8.791,3.005,3.005,0,0,1,.677,2.026v.171A3.01,3.01,0,0,1,36.5-1.757a2.24,2.24,0,0,1-1.791.788,2.259,2.259,0,0,1-1.8-.788,3,3,0,0,1-.677-2.029Zm.62.168a2.659,2.659,0,0,0,.491,1.632,1.609,1.609,0,0,0,1.37.661,1.6,1.6,0,0,0,1.357-.661,2.649,2.649,0,0,0,.494-1.632v-.17a2.637,2.637,0,0,0-.5-1.621,1.608,1.608,0,0,0-1.365-.666,1.6,1.6,0,0,0-1.359.666,2.656,2.656,0,0,0-.491,1.621Zm8.192-2.349-.46-.031a1.4,1.4,0,0,0-.959.328,1.81,1.81,0,0,0-.535.9v3.861h-.62V-6.67h.543l.078.93v.062a2.009,2.009,0,0,1,.651-.806,1.637,1.637,0,0,1,.972-.289,1.43,1.43,0,0,1,.23.018,1.653,1.653,0,0,1,.183.039Z" transform="translate(1331.881 2499.505)"/></g></svg>