<svg xmlns="http://www.w3.org/2000/svg" width="49.1" height="33.2" viewBox="0 0 49.1 33.2"><path d="M135.8,8.4A65.126,65.126,0,0,0,109,14.2l11,19a63.654,63.654,0,0,1,33.3-22.4A62.7,62.7,0,0,0,135.8,8.4Z" transform="translate(-104.2 0)" fill="#3792bf"/><path d="M135.8,8.4A63.912,63.912,0,0,0,109.5,14l5.7,10.8A50.9,50.9,0,0,1,144.1,8.9,74.029,74.029,0,0,0,135.8,8.4Z" transform="translate(-104.2 0)" fill="#00609c"/><path d="M131,0a65.126,65.126,0,0,0-26.8,5.8l11,19A63.654,63.654,0,0,1,148.5,2.4,63.215,63.215,0,0,0,131,0Z" transform="translate(-104.2 0)" fill="#00ac69"/></svg>