<svg xmlns="http://www.w3.org/2000/svg" width="240" height="78.621" viewBox="0 0 240 78.621">
  <path id="logo-white" d="M214.179,2.814A97.28,97.28,0,0,0,191.172,0,93.578,93.578,0,0,0,153.1,8.11l15.228,26.317A93.647,93.647,0,0,1,214.179,2.814M17.876,66.372a5.628,5.628,0,1,1-11.255,0V50.483H0v15.89a12.257,12.257,0,0,0,24.5.662h0V50.483H17.876ZM231.393,60.91H220.634a1.159,1.159,0,0,1,0-2.317h13.9V51.972H220.469a7.779,7.779,0,0,0,0,15.559h10.924a2.013,2.013,0,0,1,1.986,1.986,1.912,1.912,0,0,1-1.986,1.986H211.531a15.2,15.2,0,0,1-6.29,6.621h26.152a8.607,8.607,0,0,0,0-17.214M38.731,50.483A12.2,12.2,0,0,0,26.483,62.069h0v15.89H33.1V62.731a5.628,5.628,0,1,1,11.255,0V77.959h6.621V62.731A12.117,12.117,0,0,0,38.731,50.483m83.09,17.876a5.628,5.628,0,0,0,0-11.255h-5.628V68.524h5.628Zm0,6.621h-5.628v2.979h-6.621V50.483h12.248a12.248,12.248,0,1,1,0,24.5M212.69,47.834h-9.269l-1.986,1.986a15.054,15.054,0,0,1,6.29,3.145Zm-7.448,16.883A7.283,7.283,0,1,0,197.959,72a7.347,7.347,0,0,0,7.283-7.283m-7.283,13.9a13.9,13.9,0,1,1,13.9-13.9,13.88,13.88,0,0,1-13.9,13.9M52.966,56.938h6.621V50.483H52.966Zm92.028-6.455L141.186,57.1,129.1,78.124h7.614l8.276-14.4,8.276,14.4h7.614L148.8,57.1Zm0-.166Zm-52.634.166L88.552,57.1,76.469,78.124h7.614l8.276-14.4,8.276,14.4h7.614L96.166,57.1Zm0-.166Zm-11.09,6.621V50.317H61.407v6.621h6.621V77.959h6.621V56.938Zm94.345,9.931h0A5.728,5.728,0,0,1,169.986,72a5.608,5.608,0,0,1-5.628-5.131h0v-4.8h-6.621v4.8h0a12.259,12.259,0,0,0,24.5,0h0V50.317h-6.621ZM52.966,78.124h6.621V58.262H52.966ZM224.607,15.062a94.541,94.541,0,0,0-48.662,32.772l-7.117-12.248a93.9,93.9,0,0,1,28.3-24h1.821a93.239,93.239,0,0,1,25.655,3.476" fill="#fff"/>
</svg>
