<?xml version="1.0" encoding="utf-8"?>
<!-- Generator: Adobe Illustrator 24.0.2, SVG Export Plug-In . SVG Version: 6.00 Build 0)  -->
<svg version="1.1" id="Layer_1" xmlns="http://www.w3.org/2000/svg" xmlns:xlink="http://www.w3.org/1999/xlink" x="0px" y="0px"
	 viewBox="0 0 164.1 54.3" style="enable-background:new 0 0 164.1 54.3;" xml:space="preserve">
<style type="text/css">
	.st0{fill:#3792BF;}
	.st1{fill:#00609C;}
	.st2{fill:#00AC69;}
</style>
<g>
	<path class="st0" d="M135.8,8.4c-9.5,0-18.6,2.1-26.8,5.8l11,19c8.3-10.7,19.9-18.7,33.3-22.4C147.8,9.2,141.9,8.4,135.8,8.4z"/>
	<path class="st1" d="M135.8,8.4c-9.4,0-18.3,2-26.3,5.6l5.7,10.8c7.4-8.2,17.4-13.8,28.9-15.9C141.4,8.6,138.7,8.4,135.8,8.4z"/>
	<path class="st2" d="M131,0c-9.5,0-18.6,2.1-26.8,5.8l11,19c8.3-10.7,19.9-18.7,33.3-22.4C142.9,0.8,137.1,0,131,0z"/>
	<g>
		<g>
			<rect x="36.2" y="40.2" class="st0" width="4.5" height="13.6"/>
			<path class="st0" d="M120.1,46.2L120.1,46.2c-0.2,2-1.9,3.5-3.9,3.5c-2,0-3.7-1.6-3.9-3.5h0v-3.3h-4.5v3.3h0c0.2,4.5,3.9,8,8.4,8
				c4.5,0,8.2-3.6,8.4-8h0V34.9h-4.5V46.2z"/>
			<polygon class="st0" points="55.6,39.4 55.6,34.9 42,34.9 42,39.4 46.5,39.4 46.5,53.9 51,53.9 51,39.4 			"/>
			<polygon class="st0" points="63.2,34.9 63.2,35 63.2,34.9 			"/>
			<polygon class="st0" points="63.2,35 60.6,39.5 52.3,53.9 57.5,53.9 63.2,44 68.9,53.9 74.1,53.9 65.8,39.5 			"/>
			<polygon class="st0" points="99.2,34.9 99.2,35 99.2,34.9 			"/>
			<polygon class="st0" points="99.2,35 96.6,39.5 88.3,53.9 93.5,53.9 99.2,44 104.9,53.9 110.1,53.9 101.8,39.5 			"/>
			<rect x="36.2" y="35" class="st0" width="4.5" height="4.4"/>
			<path class="st0" d="M144.9,44.7c0-5.3-4.3-9.6-9.5-9.6c-5.3,0-9.6,4.3-9.6,9.6c0,5.3,4.3,9.6,9.6,9.6
				C140.6,54.3,144.9,50,144.9,44.7z M135.3,49.7c-2.8,0-5-2.3-5-5c0-2.8,2.3-5,5-5c2.8,0,5,2.3,5,5
				C140.4,47.5,138.1,49.7,135.3,49.7z"/>
			<path class="st0" d="M145.5,33.2h-6.4l-1.3,1.3c1.6,0.4,3,1.1,4.3,2.1L145.5,33.2z"/>
			<path class="st0" d="M91.7,43.4c0-4.6-3.8-8.4-8.4-8.4h-3.9h-0.7h-3.9v18.8h4.5v-2.1h3.9C87.9,51.8,91.7,48,91.7,43.4z
				 M79.4,47.3v-7.8h3.9h0c2.1,0,3.9,1.7,3.9,3.9c0,2.1-1.7,3.9-3.9,3.9H79.4z"/>
			<path class="st0" d="M26.5,35c-4.5,0-8.1,3.5-8.4,7.9h0v10.9h4.5V43.4c0-2.1,1.7-3.9,3.9-3.9c2.1,0,3.9,1.7,3.9,3.9v10.5h4.5
				V43.4C34.9,38.8,31.2,35,26.5,35z"/>
			<path class="st0" d="M158.3,42.2L158.3,42.2L158.3,42.2h-2.2h-5.1h-0.1c0,0,0,0,0,0c-0.4,0-0.8-0.4-0.8-0.8s0.4-0.8,0.8-0.8
				c0,0,0,0,0,0h0.1h5.1h4.3V36h-9.5v0c0,0-0.1,0-0.1,0c-2.9,0-5.3,2.4-5.3,5.3c0,2.9,2.4,5.3,5.3,5.3c0,0,0.1,0,0.1,0v0h7.3v0l0,0
				c0.7,0,1.3,0.6,1.3,1.3c0,0.7-0.6,1.3-1.3,1.3l0,0v0h-0.1h-5.5h-7.9c-0.9,1.9-2.5,3.5-4.3,4.5h17.8c0,0,0.1,0,0.1,0
				c3.2,0,5.8-2.6,5.8-5.8C164.1,44.8,161.5,42.2,158.3,42.2z"/>
			<path class="st0" d="M12.3,45.9c0,2.1-1.7,3.9-3.9,3.9c-2.1,0-3.9-1.7-3.9-3.9V35H0v10.9c0,4.6,3.8,8.4,8.4,8.4
				c4.5,0,8.1-3.5,8.4-7.9h0V35h-4.5V45.9z"/>
		</g>
	</g>
</g>
</svg>
